<svg xmlns="http://www.w3.org/2000/svg" xmlns:xlink="http://www.w3.org/1999/xlink" version="1.1" x="0px" y="0px" viewBox="0 0 1000 1250" enable-background="new 0 0 1000 1000" xml:space="preserve"><g><path fill="#000000" d="M776.556,447.675c-15.259,0-45.423-9.28-56.544-14.688c-33.36-15.93-65.525-53.5-89.269-82.955   c-11.229-13.935-15.53-26.521-16.947-35.918c-1.354,0.679-2.622,1.183-3.786,1.456c-65.722,10.419-100.052,36.068-100.052,36.068   s-57.042-4.808-110.74-3.664c-53.698,1.146-109.8,24.503-129.036,21.297c-19.236-3.206-26.45,2.405-40.88,24.847   c-14.423,22.438-23.238,21.638-54.497,52.094c-31.256,30.457-14.423,63.317-45.683,104.194   c-31.26,40.877-20.837,49.688-30.458,79.348c-9.616,29.652-14.428,51.292-28.053,61.709c-13.628,10.425-8.812,32.062-15.227,56.905   c-6.411,24.845-14.338,27.682-30.458,74.935c-11.621,34.067-5.23,24.301,22.48,51.102c11.859,11.468,24.716,10.413,40.342-2.817   c15.625-13.222-1.985-26.378-4.391-30.785c-2.409-4.408-1.927-21.503,0.478-33.524c2.404-12.022,14.827-49.696,18.836-54.902   c4.008-5.21,53.696-55.304,68.924-74.54c15.227-19.231,22.447-25.245,28.854-30.854c6.411-5.611,30.459-23.644,37.672-27.65   c-0.401,11.224-2.408,24.848-8.822,31.654c-6.41,6.812-28.047,24.852-30.054,31.664c-2.007,6.812,9.22,35.662,10.819,63.315   c1.605,27.649,6.815,40.074,12.829,48.491c6.009,8.41,11.621,24.442,31.258,27.646c24.446,4.407,28.449-4.007,28.854-14.824   c0.401-10.822-10.019-12.425-19.235-18.838c-9.221-6.412-7.217-33.66-7.217-43.278c0-9.617,8.815-32.859,18.036-37.666   c31.66-18.842,56.504-42.883,66.122-66.527c13.269,6.452,46.89,2.464,50.491-26.848c25.249,4.006,71.734,33.663,100.188,50.091   c28.449,16.427,28.449,16.427,28.449,16.427s10.825,66.932,10.424,92.178c-0.401,25.241,4.407,48.885,6.407,65.318   c2.007,16.43,3.847,60.681,5.448,71.503c3.641,23.846,15.063,22.642,24.682,36.469c15.026,18.636,35.189,10.875,45.188,3.914   c15.102-10.513-1.581-28.154-8.794-46.588c-7.214-18.43-0.8-84.932-0.401-111.782c0.404-26.847,10.421-103.391,10.421-103.391   s47.686-18.437,65.323-27.648c-13.625,40.475-7.615,111.402-6.816,125.829c0.803,14.426-3.203,22.837,0.4,30.456   c3.609,7.614,1.605,25.245,1.605,25.245c2.811,45.685,24.046,34.572,46.887,47.798c22.841,13.224,33.663-2.113,37.669-5.718   c7.612-8.417-0.802-19.638-5.21-20.842c-16.032-5.607-21.238-24.442-22.841-32.061c-7.217-35.659,6.41-66.925,12.821-86.157   s24.041-49.688,30.055-75.339c6.01-25.645,6.815-44.88,7.615-55.305c0.803-10.413,10.818-27.043,16.23-32.456   c20.135-20.439,15.93-41.479,13.224-51.098c-2.707-9.614,4.809-22.837,6.312-27.944c1.502-5.115-2.106-35.168-0.601-45.688   c1.26-8.817,0.625-24.798,1.801-36.646c-0.935,4.838-2.632,8-8.677,15.42C803.637,442.699,791.803,447.675,776.556,447.675z"/><path fill="#000000" d="M959.851,275.195c2.706-10.218,0-17.432-1.503-22.542c-1.501-5.11-0.301-20.438-2.105-27.651   c-18.629-32.461-40.869-48.088-52.896-66.722c10.219-24.647,11.423-73.938-4.209-93.773c-16.828,7.212-30.654,50.492-30.654,50.492   l-18.032,34.264l-25.248,9.618c0,0-28.251-14.428-31.859-24.646c-12.622-33.663-24.045-60.109-40.272-60.109   c-16.231,0-25.85,21.639-29.458,42.076c-3.602,20.438-7.21,21.039-10.218,51.094c-3.005,30.057,0,40.275,10.218,52.899   c-19.832,6.612-25.846,15.027-49.287,37.268c-11.18,10.606-23.221,23.577-34.241,34.599   c16.021,36.068,81.636,98.992,112.72,117.294c37.271,21.94,65.788,4.998,65.788,4.998c17.269,2.717,83.39-20.926,93.772-34.564   c33.659,2.703,33.059-9.018,35.463-15.93c5.409-0.901,32.761-13.225,32.761-39.371   C980.589,298.337,967.365,284.512,959.851,275.195z"/></g><text x="0" y="1015" fill="#000000" font-size="5px" font-weight="bold" font-family="'Helvetica Neue', Helvetica, Arial-Unicode, Arial, Sans-serif">Created by Evgeny Tarasenko</text><text x="0" y="1020" fill="#000000" font-size="5px" font-weight="bold" font-family="'Helvetica Neue', Helvetica, Arial-Unicode, Arial, Sans-serif">from the Noun Project</text></svg>