<svg xmlns="http://www.w3.org/2000/svg" xmlns:xlink="http://www.w3.org/1999/xlink" version="1.1" x="0px" y="0px" viewBox="0 0 100 125" enable-background="new 0 0 100 100" xml:space="preserve"><path d="M74.146,33.541c0,0.001,0,0.001,0.001,0.002c0.735,1.417,1.966,3.789,5.063,6.444c1.496,1.283,3.209,1.935,4.973,1.934  c1.221,0,2.467-0.312,3.681-0.943c2.416-1.256,4.129-3.498,4.185-5.37c0.125-1.343-0.599-2.442-1.91-2.796  c-0.02-0.043-0.032-0.104-0.039-0.178c0.025-0.594,0.27-1.626,0.447-2.369c0.32-1.344,0.719-3.042,0.745-4.854  c0.09-2.897-0.75-6.117-4.441-8.673c-1.747-1.209-3.808-1.822-6.126-1.822c-7.449,0-15.52,6.33-17.367,7.864h-27.72  c-1.847-1.534-9.919-7.864-17.368-7.864c-2.317,0-4.379,0.613-6.125,1.822c-3.691,2.556-4.531,5.775-4.441,8.673  c0.026,1.812,0.425,3.51,0.745,4.854c0.17,0.711,0.402,1.689,0.438,2.281c-0.006,0.1-0.018,0.186-0.047,0.236  c-1.295,0.382-2.02,1.482-1.893,2.825c0.055,1.872,1.768,4.114,4.184,5.37c1.214,0.632,2.459,0.943,3.681,0.943  c1.763,0,3.476-0.65,4.973-1.934c3.099-2.655,4.328-5.027,5.063-6.444c0-0.001,0-0.001,0-0.002l0.101,0.128v13.142  c-1.013,0.243-1.99,0.551-2.927,0.913c-0.031,0.013-0.062,0.026-0.094,0.038c-0.363,0.144-0.721,0.296-1.072,0.456  c-0.148,0.066-0.297,0.135-0.441,0.205c-0.263,0.127-0.521,0.258-0.773,0.394c-0.226,0.12-0.445,0.244-0.664,0.37  c-0.021,0.013-0.041,0.025-0.062,0.038c-2.49,1.463-4.492,3.37-5.848,5.56c-0.038,0.061-0.073,0.121-0.109,0.181  c-0.188,0.313-0.361,0.632-0.522,0.955c-0.069,0.14-0.139,0.279-0.203,0.421c-0.073,0.161-0.144,0.322-0.21,0.486  c-0.115,0.281-0.222,0.565-0.316,0.854c-0.035,0.11-0.064,0.222-0.098,0.332c-0.077,0.261-0.146,0.522-0.206,0.787  c-0.021,0.095-0.046,0.188-0.064,0.281c-0.069,0.341-0.121,0.687-0.161,1.034c-0.01,0.089-0.018,0.178-0.025,0.267  c-0.033,0.361-0.057,0.726-0.057,1.094c0,0.007-0.002,0.014-0.002,0.021c0,8.468,8.781,15.357,19.575,15.357  c1.256,0,2.482-0.098,3.673-0.276c1.771,5.243,7.857,8.928,15.043,8.928c7.211,0,13.299-3.697,15.055-8.958  c1.258,0.2,2.559,0.307,3.891,0.307c10.793,0,19.574-6.89,19.574-15.357c0-0.378-0.023-0.753-0.058-1.124  c-0.009-0.084-0.015-0.167-0.024-0.251c-0.041-0.352-0.094-0.702-0.164-1.047c-0.018-0.088-0.039-0.175-0.059-0.263  c-0.062-0.273-0.133-0.544-0.213-0.812c-0.031-0.104-0.06-0.21-0.094-0.314c-0.095-0.292-0.203-0.579-0.32-0.865  c-0.064-0.158-0.133-0.314-0.203-0.471c-0.068-0.151-0.143-0.301-0.218-0.451c-0.155-0.311-0.322-0.615-0.502-0.917  c-0.041-0.068-0.081-0.137-0.124-0.205c-1.352-2.182-3.346-4.081-5.826-5.54c-0.028-0.018-0.056-0.035-0.084-0.052  c-0.215-0.125-0.434-0.247-0.654-0.365c-0.264-0.141-0.531-0.278-0.803-0.409c-0.136-0.064-0.273-0.128-0.412-0.19  c-0.354-0.161-0.715-0.315-1.083-0.461c-0.029-0.011-0.058-0.022-0.087-0.034c-0.936-0.363-1.914-0.67-2.928-0.914V33.669  L74.146,33.541z M71.316,25.206l0.119,1.918l0.014,19.214c-1.017-0.128-2.059-0.197-3.121-0.197c-6.217,0-11.761,2.287-15.35,5.843  c-0.012,0-0.021-0.003-0.033-0.003H46.05c-0.011,0-0.022,0.003-0.034,0.003c-3.588-3.556-9.133-5.843-15.349-5.843  c-1.063,0-2.106,0.069-3.124,0.197l-0.002-19.036l0.137-2.096l-1.193,0.397c-0.816-1.056-2.217-2.484-4.092-2.982  c-1.53-0.407-3.068-0.144-4.568,0.786c-3.426,2.12-3.42,4.616-3.418,5.957c0,0.163,0,0.368-0.009,0.512  c-0.541,0.311-0.792,0.976-0.566,1.579c0.251,0.672,0.999,1.012,1.671,0.76c1.504-0.563,1.502-1.998,1.5-2.856  c-0.002-1.173-0.005-2.387,2.188-3.744c0.879-0.543,1.705-0.704,2.527-0.487c1.532,0.402,2.684,1.961,3.117,2.628l-0.14,2.431  c-0.005,0-0.011,0-0.017,0c-1.125,0-1.615,0.945-2.135,1.945c-0.647,1.25-1.732,3.343-4.447,5.67  c-1.012,0.866-2.111,1.306-3.271,1.306c-1.93,0-3.733-1.228-4.666-2.445c-0.395-0.516-0.56-0.926-0.631-1.155  c0.014-0.006,0.023-0.011,0.045-0.017c1.51-0.444,1.918-1.573,1.893-2.882c0.02-1.007-0.248-2.141-0.492-3.162  c-0.352-1.473-0.717-3.029-0.702-4.566c0.069-2.055,0.862-4.066,3.352-5.79c7.503-5.194,20.554,6.067,20.686,6.183  c0.448,0.393,1.087,0.414,1.562,0.104h27.256c0.475,0.311,1.114,0.287,1.562-0.104c0.131-0.115,13.168-11.388,20.686-6.183  c2.49,1.724,3.283,3.735,3.352,5.79c0.014,1.537-0.352,3.094-0.703,4.566c-0.243,1.021-0.511,2.155-0.491,3.162  c-0.026,1.309,0.383,2.438,1.892,2.882c0.014,0.004,0.02,0.006,0.029,0.009c-0.061,0.256-0.233,0.665-0.615,1.163  c-0.932,1.217-2.735,2.445-4.665,2.445c-1.16,0-2.261-0.439-3.271-1.306c-2.716-2.327-3.801-4.42-4.449-5.67  c-0.52-1-1.009-1.945-2.133-1.945c-0.006,0-0.013,0-0.018,0l-0.141-2.431c0.436-0.67,1.587-2.226,3.117-2.628  c0.824-0.216,1.65-0.056,2.527,0.487c2.193,1.357,2.19,2.571,2.188,3.744c-0.001,0.858-0.004,2.293,1.5,2.856  c0.669,0.25,1.403-0.089,1.658-0.754c0.229-0.599-0.021-1.264-0.554-1.582c-0.01-0.144-0.01-0.351-0.009-0.515  c0.003-1.341,0.007-3.837-3.417-5.957c-1.502-0.93-3.039-1.193-4.569-0.786c-1.876,0.498-3.274,1.927-4.093,2.982L71.316,25.206z   M54.797,56.427v0.407c0,1.021-0.83,1.852-1.852,1.852h-1.168c0.416-1.383,1.136-2.677,2.097-3.851  C54.423,55.156,54.797,55.746,54.797,56.427z M35.026,73.814c-0.638,0.127-1.273,0.223-1.905,0.295  c-0.129,0.014-0.255,0.032-0.384,0.045c-0.224,0.021-0.444,0.036-0.667,0.051c-0.463,0.029-0.93,0.054-1.403,0.054  c-9.362,0-16.979-5.726-16.979-12.762c0-0.407,0.031-0.809,0.081-1.206c0.017-0.13,0.044-0.257,0.065-0.385  c0.044-0.266,0.095-0.529,0.161-0.79c0.037-0.149,0.082-0.298,0.127-0.447c0.071-0.235,0.151-0.47,0.24-0.7  c0.057-0.149,0.115-0.298,0.18-0.445c0.102-0.234,0.218-0.465,0.338-0.693c0.068-0.13,0.132-0.263,0.206-0.393  c0.173-0.301,0.364-0.594,0.567-0.883c0.035-0.05,0.064-0.103,0.101-0.152c0.238-0.329,0.499-0.646,0.774-0.957  c0.102-0.115,0.215-0.225,0.321-0.338c0.186-0.195,0.374-0.389,0.573-0.575c0.137-0.129,0.281-0.254,0.425-0.378  c0.183-0.158,0.369-0.313,0.562-0.465c0.17-0.132,0.341-0.263,0.518-0.39c0.173-0.124,0.352-0.244,0.532-0.363  c0.21-0.139,0.419-0.278,0.638-0.409c0.127-0.076,0.258-0.145,0.387-0.217c1.754-0.988,3.777-1.739,6.006-2.166l0.807-0.154  c1.09-0.166,2.217-0.255,3.37-0.255c5.005,0,9.497,1.646,12.608,4.244c-1.012,0.816-1.673,2.05-1.673,3.447v0.407  c0,2.452,1.995,4.447,4.447,4.447h1.581c0.002,0.072,0.016,0.144,0.016,0.216c0,0.398-0.031,0.791-0.08,1.181l-0.024,0.203  c-0.733,5.081-5.446,9.273-11.743,10.778L35.026,73.814z M49.383,82.91c-5.823,0-10.902-2.879-12.461-6.864  c6.074-1.612,10.816-5.5,12.576-10.365c1.738,4.81,6.394,8.665,12.367,10.31C60.334,80.007,55.242,82.91,49.383,82.91z   M78.52,51.314c0.125,0.071,0.252,0.138,0.374,0.211c0.223,0.133,0.435,0.274,0.647,0.414c0.176,0.117,0.353,0.235,0.523,0.357  c0.179,0.129,0.353,0.262,0.523,0.396c0.189,0.148,0.373,0.302,0.553,0.457c0.147,0.127,0.294,0.254,0.434,0.385  c0.195,0.183,0.38,0.372,0.562,0.563c0.11,0.116,0.228,0.23,0.333,0.35c0.264,0.298,0.513,0.604,0.742,0.917  c0.053,0.072,0.099,0.146,0.149,0.219c0.194,0.278,0.378,0.561,0.546,0.851c0.077,0.134,0.143,0.271,0.214,0.406  c0.116,0.224,0.229,0.448,0.331,0.678c0.065,0.151,0.125,0.304,0.184,0.457c0.086,0.227,0.165,0.455,0.234,0.687  c0.047,0.152,0.093,0.306,0.131,0.46c0.064,0.255,0.114,0.512,0.158,0.772c0.022,0.133,0.051,0.266,0.067,0.4  c0.05,0.396,0.081,0.797,0.081,1.202c0,7.036-7.617,12.762-16.979,12.762c-0.483,0-0.959-0.024-1.432-0.055  c-0.221-0.015-0.441-0.032-0.662-0.053c-0.184-0.017-0.362-0.042-0.543-0.062c-0.643-0.079-1.287-0.18-1.93-0.315l-0.642-0.135  c-6.263-1.521-10.944-5.704-11.669-10.769l-0.021-0.176c-0.049-0.395-0.081-0.793-0.081-1.197c0-0.072,0.013-0.144,0.015-0.216  h1.582c2.452,0,4.447-1.995,4.447-4.447v-0.407c0-1.397-0.662-2.631-1.673-3.447c3.11-2.598,7.603-4.244,12.608-4.244  c1.154,0,2.28,0.089,3.371,0.255l0.806,0.154C74.738,49.572,76.764,50.324,78.52,51.314z M69.915,34.449  c-0.411,0.585-1.22,0.725-1.806,0.314c-0.205-0.142-5.082-3.458-11.162-0.037c-2.774,1.562-5.133,2.254-7.126,2.423v0.042  c-0.105-0.004-0.216-0.016-0.323-0.021c-0.107,0.006-0.219,0.018-0.324,0.021v-0.042c-1.993-0.169-4.352-0.861-7.127-2.423  c-6.079-3.421-10.956-0.104-11.161,0.037c-0.586,0.41-1.395,0.271-1.806-0.314c-0.412-0.584-0.276-1.389,0.306-1.804  c0.257-0.182,6.384-4.428,13.934-0.182c2.271,1.277,4.341,1.974,6.179,2.111c1.836-0.138,3.906-0.834,6.178-2.111  c7.55-4.246,13.676,0,13.934,0.182C70.191,33.061,70.326,33.865,69.915,34.449z M38.791,36.407c-2.743,0-4.975,2.231-4.975,4.975  s2.231,4.975,4.975,4.975c2.742,0,4.975-2.231,4.975-4.975S41.533,36.407,38.791,36.407z M60.204,36.407  c-2.743,0-4.975,2.231-4.975,4.975s2.231,4.975,4.975,4.975s4.975-2.231,4.975-4.975S62.947,36.407,60.204,36.407z"/></svg>