<svg xmlns="http://www.w3.org/2000/svg" xmlns:xlink="http://www.w3.org/1999/xlink" version="1.1" x="0px" y="0px" viewBox="0 0 100 125" enable-background="new 0 0 100 100" xml:space="preserve"><path d="M91.697,60.795c-0.888-0.746-1.662-0.755-2.154-0.633c-1.672,0.418-2.123,2.531-2.694,5.206   c-0.276,1.292-0.561,2.628-0.979,3.822c-0.466,1.331-1.452,1.794-2.227,1.945c-0.256-1.917-1.103-5.407-3.906-7.942   c-1.644-1.488-3.394-2.634-5.087-3.742c-2.084-1.365-4.238-2.776-6.23-4.857c-2.973-3.108-4.233-7.907-4.514-9.121   c0.315-0.17,0.622-0.35,0.912-0.552c4.216-2.952,4.047-9.063,3.236-15.228c-0.972-7.389-8.648-18.323-22.035-18.323   c-8.355,0-11.861,3.563-15.574,7.335c-2.059,2.092-4.188,4.255-7.363,6.078c-1.951,1.12-3.923,1.328-5.37,1.27   c-3.283-1.703-7.726-0.362-10.312,3.265c-2.793,3.917-2.361,9.014,0.964,11.384c0.382,0.272,0.786,0.494,1.205,0.672   c0.013,0.037,0.021,0.075,0.038,0.111c0.299,0.651,7.51,15.918,24.296,15.918c0.018,0,0.038,0,0.056,0   c3.863-0.008,6.922-0.487,9.345-1.197v18.46c-1.79,0.216-3.5,0.797-4.844,1.675c-2.137,1.396-3.314,3.483-3.314,5.876   c0,6.748,6.308,9.143,11.71,9.143c3.945,0,7.36-1.506,10.175-4.476c0.87,1.056,2.074,1.958,3.597,2.683   c2.36,1.123,5.54,1.793,8.505,1.793c6.256,0,10.53-2.571,13.964-4.636c1.201-0.723,2.336-1.405,3.435-1.913   c2.931-1.353,4.869-4.069,5.978-6.108c1.373-2.524,2.268-5.482,2.456-8.116C95.261,66.481,93.498,62.308,91.697,60.795z    M55.371,82.216c0,0.74,0.103,1.445,0.299,2.113c-2.412,2.861-5.373,4.31-8.813,4.31c-1.501,0-8.991-0.31-8.991-6.423   c0-3.616,4.167-4.929,6.968-4.929c1.871,0,5.129,0.967,6.128,2.714c0.372,0.652,1.203,0.879,1.855,0.506   c0.652-0.372,0.879-1.203,0.506-1.855c-1.38-2.416-4.753-3.689-7.299-4.003V55.363c0-0.051-0.01-0.1-0.015-0.15   c4.755-2.144,5.97-5.119,6.044-5.313c0.268-0.701-0.079-1.497-0.78-1.765c-0.701-0.27-1.484,0.073-1.752,0.774   c-0.024,0.057-2.555,5.747-15.566,5.774c-0.016,0-0.032,0-0.048,0c-1.102,0-2.158-0.078-3.171-0.22   c1.018-0.266,1.988-0.651,2.801-1.207c3.659-2.503,4.285-5.844,4.31-5.984c0.131-0.74-0.363-1.445-1.103-1.575   c-0.74-0.13-1.445,0.363-1.575,1.103c-0.004,0.023-0.486,2.378-3.168,4.213c-2.164,1.48-6.566,1.353-8.431,1.147   c-5.706-2.982-9.175-7.844-10.653-10.295c2.408-0.231,4.855-1.62,6.526-3.964c2.133-2.992,2.379-6.668,0.898-9.296   c1.288-0.217,2.691-0.656,4.098-1.464c3.498-2.008,5.862-4.41,7.947-6.528c3.587-3.644,6.42-6.523,13.636-6.523   c6.781,0,11.304,3.125,13.905,5.746c3.477,3.505,5.087,7.573,5.434,10.212c0.956,7.268,0.348,10.932-2.099,12.645   c-2.929,2.05-9.084,1.874-11.607-1.122c-2.278-2.705-1.323-7.754-0.334-9.733c1.133-2.267,3.284-5.417,3.305-5.449   c0.424-0.62,0.265-1.466-0.355-1.89c-0.621-0.424-1.466-0.265-1.89,0.354c-0.093,0.135-2.276,3.334-3.493,5.768   c-1.504,3.008-2.326,9.125,0.686,12.701c1.918,2.278,5.297,3.495,8.654,3.495c1.057,0,2.109-0.128,3.115-0.374   c0.454,1.838,1.89,6.659,5.114,10.03c0.498,0.521,1.001,0.996,1.506,1.443c-2.989,0.609-6.379,2.398-7.946,6.583   c-1.307,3.49-0.01,8.41,0.782,10.805c-0.765,0.276-1.48,0.623-2.113,1.037C56.549,77.736,55.371,79.823,55.371,82.216z    M92.255,70.392c-0.312,4.367-3.024,10.178-6.861,11.949c-1.234,0.57-2.431,1.289-3.698,2.051   c-3.309,1.991-7.061,4.247-12.562,4.247c-2.581,0-5.324-0.572-7.337-1.529c-2.459-1.17-3.707-2.817-3.707-4.895   c0-3.616,4.167-4.929,6.968-4.929c3.241,0,5.69,0.986,8.452,3.403c0.565,0.494,1.424,0.438,1.919-0.128   c0.494-0.565,0.437-1.424-0.128-1.919c-3.265-2.856-6.328-4.075-10.243-4.075c-0.539,0-1.077,0.038-1.608,0.106   c-0.795-2.328-1.865-6.612-0.888-9.222c1.925-5.142,7.272-5.136,8.616-5.05c0.665,0.458,1.327,0.895,1.983,1.324   c1.679,1.099,3.265,2.138,4.752,3.483c3.061,2.769,3.121,7.278,3.122,7.32c0,0.677,0.498,1.25,1.167,1.346   c1.619,0.233,5.001-0.264,6.234-3.786c0.475-1.357,0.792-2.842,1.072-4.153c0.189-0.884,0.451-2.114,0.707-2.803   C91.072,64.129,92.495,67.033,92.255,70.392z"/></svg>