<svg width="76px" height="86px" viewBox="0 0 76 86" version="1.1" xmlns="http://www.w3.org/2000/svg" xmlns:xlink="http://www.w3.org/1999/xlink">
    <g id="Page-1" stroke="none" stroke-width="1" fill="none" fill-rule="evenodd">
        <g id="bostonTerrier" transform="translate(0.000000, -1.000000)" fill="#000000">
            <path d="M73.7499394,2.91563636 C72.7792121,1.79521212 71.4296364,1.19181818 69.7415152,1.12387879 C67.0481212,1.01333333 64.2257576,2.9789697 62.3487879,4.46787879 C58.0398182,7.88557576 54.7787273,12.4766667 51.6247273,16.9169091 C51.2401212,17.4592727 50.8566667,17.9993333 50.4743636,18.5324848 C50.309697,18.7604848 50.1461818,18.9896364 49.9792121,19.2164848 C49.6084242,19.7323636 49.2249697,20.2666667 48.8518788,20.8021212 C46.1273939,19.9937576 43.2981212,19.5838182 40.4009091,19.5838182 L35.6013939,19.5838182 C32.7041818,19.5838182 29.8760606,19.9937576 27.1515758,20.8021212 C26.7784848,20.2666667 26.3950303,19.7323636 26.0230909,19.2164848 C25.8572727,18.9896364 25.6937576,18.7604848 25.5290909,18.5324848 C25.1467879,17.9993333 24.7633333,17.4592727 24.3775758,16.9169091 C21.2235758,12.4766667 17.9624848,7.88557576 13.6535152,4.46787879 C11.7765455,2.9789697 8.95648485,1.0110303 6.26078788,1.12387879 C4.57151515,1.1929697 3.22193939,1.79521212 2.25121212,2.91563636 C0.0495151515,5.4570303 0.500909091,9.88806061 0.802606061,12.8186667 C1.04212121,15.1769697 1.50272727,17.5133939 1.94721212,19.7715152 C2.09806061,20.5338182 2.24775758,21.2961212 2.38939394,22.0584242 C3.02848485,25.4968485 3.86563636,29.1667273 5.02521212,33.6115758 C5.5330303,35.5541818 6.08230303,37.5382424 6.66036364,39.5096364 C6.94018182,40.4596364 7.23612121,41.4430303 7.54357576,42.4321818 C7.60690909,42.6406061 7.71630303,42.8973939 7.85448485,43.2244242 C7.9949697,43.5595152 8.27248485,44.2158788 8.34733333,44.536 C7.3109697,47.383697 6.78587879,50.3764848 6.78587879,53.4337576 C6.78587879,60.3347879 9.45624242,66.8224242 14.3075758,71.7232727 L13.5786667,73.8190303 C13.3322424,74.3441212 12.1450303,77.1112121 13.0685455,79.9220606 C13.6466061,81.6804242 14.9040606,83.0726061 16.8052121,84.0594545 C17.2312727,84.3738182 18.6269091,85.2846667 20.6006061,85.2846667 L20.6006061,85.2846667 C21.9317576,85.2846667 23.2329697,84.8701212 24.469697,84.0490909 L24.7034545,83.901697 C26.068,84.9253939 29.1540606,86.3981818 35.603697,86.3981818 L40.4032121,86.3981818 C46.851697,86.3981818 49.9354545,84.927697 51.3046061,83.901697 L51.5383636,84.0490909 C52.7739394,84.8701212 54.076303,85.2846667 55.406303,85.2846667 C57.3811515,85.2846667 58.7767879,84.3738182 59.201697,84.0594545 C61.1028485,83.0737576 62.360303,81.6815758 62.9383636,79.9220606 C63.8618788,77.1123636 62.6746667,74.3441212 62.4293939,73.8190303 L61.6993333,71.7232727 C66.5495152,66.8224242 69.2210303,60.3347879 69.2210303,53.4337576 C69.2210303,50.3764848 68.6947879,47.383697 67.6584242,44.536 C67.7332727,44.2170303 68.0119394,43.5595152 68.1524242,43.2244242 C68.2894545,42.8973939 68.3988485,42.6406061 68.4621818,42.4321818 C68.7707879,41.4430303 69.0655758,40.4596364 69.3453939,39.5096364 C69.9234545,37.5393939 70.4727273,35.5541818 70.981697,33.6115758 C72.1401212,29.1667273 72.9784242,25.4968485 73.6163636,22.0584242 C73.7591515,21.2949697 73.9088485,20.5326667 74.059697,19.7715152 C74.5041818,17.5133939 74.9636364,15.1769697 75.204303,12.8186667 C75.4990909,9.88690909 75.9516364,5.45587879 73.7499394,2.91563636 L73.7499394,2.91563636 Z M25.8641818,33.1095152 C28.2466667,27.4924242 31.4329091,23.2145455 38,23.2145455 C44.5659394,23.2145455 47.7464242,27.4809091 50.1346667,33.1095152 C50.8359394,34.7630909 51.0213333,36.7886061 50.3407879,38.4767273 C49.5427879,40.4550303 47.1764242,40.6484848 46.1170303,42.4218182 C45.4929091,43.4639394 45.1209697,44.8630303 45.1209697,46.1630909 C45.1209697,47.2213333 45.3766061,48.1575152 45.7485455,48.9647273 C42.1696364,48.2381212 38.2867273,48.4995152 34.6513939,48.5202424 C34.0169091,48.523697 33.3858788,48.5501818 32.756,48.604303 C32.4082424,48.6342424 30.3815758,48.6826061 30.2526061,48.9635758 C30.625697,48.1575152 30.8801818,47.2201818 30.8801818,46.1619394 C30.8801818,44.8618788 30.5082424,43.4627879 29.8841212,42.4206667 C28.9663636,40.885697 26.866,40.7233333 25.9977576,39.1630303 C24.9729091,37.3229091 25.0604242,35.0037576 25.8641818,33.1095152 L25.8641818,33.1095152 Z M7.00351515,14.6956364 C7.00351515,14.6956364 4.13624242,-0.945393939 20.5119394,24.6712121 C20.5119394,24.6712121 14.2592121,29.262303 11.8260606,37.1190909 C11.8249091,36.9014545 7.07606061,18.8353333 7.00351515,14.6956364 L7.00351515,14.6956364 Z M9.43666667,51.4266667 C9.43666667,47.956 12.2521212,45.1405455 15.7239394,45.1405455 C19.1957576,45.1405455 22.0100606,47.956 22.0100606,51.4266667 C22.0100606,54.8996364 19.1946061,57.7150909 15.7239394,57.7150909 C12.2521212,57.7150909 9.43666667,54.8996364 9.43666667,51.4266667 L9.43666667,51.4266667 Z M40.3997576,83.9638788 L35.6002424,83.9638788 C30.8836364,83.9638788 28.307697,83.1382424 26.9880606,82.4634545 L38,75.5405455 L49.0130909,82.4646061 C47.6946061,83.1393939 45.1198182,83.9638788 40.3997576,83.9638788 L40.3997576,83.9638788 Z M60.6226667,79.1620606 C60.2426667,80.3170303 59.358303,81.2520606 57.9960606,81.9395152 C57.9223636,81.9763636 57.8406061,82.0293333 57.7772727,82.0811515 C57.7669091,82.0892121 56.7938788,82.8503636 55.4028485,82.8503636 C54.5564848,82.8503636 53.7020606,82.5682424 52.8706667,82.0132121 C52.8614545,82.006303 52.8510909,81.9993939 52.8430303,81.9947879 L39.2171515,73.4321212 L39.2171515,60.3912121 C39.2171515,59.7175758 38.6724848,59.1740606 38,59.1740606 C37.3275152,59.1740606 36.7828485,59.7175758 36.7828485,60.3912121 L36.7828485,73.4321212 L23.1569697,81.9959394 C23.1477576,82.0005455 23.1385455,82.0074545 23.1293333,82.0143636 C22.2956364,82.5682424 21.4435152,82.8515152 20.596,82.8515152 C19.2049697,82.8515152 18.2319394,82.0903636 18.2296364,82.0892121 C18.1593939,82.0304848 18.0833939,81.9809697 18.0016364,81.9406667 C13.5395152,79.688303 15.544303,75.3206061 15.7861212,74.8335152 C15.810303,74.7851515 15.8321818,74.7356364 15.8506061,74.6838182 L21.0784848,59.6312121 C21.0865455,59.6081818 21.0934545,59.5851515 21.1003636,59.5621212 C21.928303,56.6292121 23.9250303,53.9991515 26.7151515,52.6841212 C30.362,50.9672121 34.2184242,50.9810303 38.1669697,50.9844848 C43.1230909,50.9879394 49.7753939,51.036303 52.9293939,55.6331515 C53.7078182,56.7685455 54.5253939,58.2321212 54.9007879,59.5609697 C54.907697,59.584 54.9134545,59.6070303 54.9215152,59.6300606 L60.1493939,74.6826667 C60.1678182,74.7344848 60.1885455,74.784 60.2138788,74.8323636 C60.2242424,74.8542424 61.3043636,77.0870303 60.6226667,79.1620606 L60.6226667,79.1620606 Z M60.2760606,57.7150909 C56.8053939,57.7150909 53.9899394,54.8996364 53.9899394,51.4266667 C53.9899394,47.956 56.8053939,45.1405455 60.2760606,45.1405455 C63.7490303,45.1405455 66.5644848,47.956 66.5644848,51.4266667 C66.5644848,54.8996364 63.7478788,57.7150909 60.2760606,57.7150909 L60.2760606,57.7150909 Z M68.9964848,14.6956364 C68.9239394,18.8353333 64.1750909,36.9014545 64.1750909,37.1190909 C61.7407879,29.2634545 55.4880606,24.6712121 55.4880606,24.6712121 C71.8649091,-0.944242424 68.9964848,14.6956364 68.9964848,14.6956364 L68.9964848,14.6956364 Z M19.9845455,51.4266667 C19.9845455,49.0741212 18.0764848,47.1672121 15.7239394,47.1672121 C13.3702424,47.1672121 11.4621818,49.0741212 11.4621818,51.4266667 C11.4621818,53.7815152 13.3690909,55.6884242 15.7239394,55.6884242 C18.0764848,55.6884242 19.9845455,53.7815152 19.9845455,51.4266667 L19.9845455,51.4266667 Z M13.4266667,53.8183636 C12.765697,53.8183636 12.2313939,53.2817576 12.2313939,52.6230909 C12.2313939,51.9632727 12.765697,51.4266667 13.4266667,51.4266667 C14.0864848,51.4266667 14.6207879,51.9632727 14.6207879,52.6230909 C14.6207879,53.2817576 14.0853333,53.8183636 13.4266667,53.8183636 L13.4266667,53.8183636 Z M60.2760606,47.1672121 C57.9235152,47.1672121 56.0166061,49.0741212 56.0166061,51.4266667 C56.0166061,53.7815152 57.9235152,55.6884242 60.2760606,55.6884242 C62.6309091,55.6884242 64.5378182,53.7815152 64.5378182,51.4266667 C64.5378182,49.0741212 62.6309091,47.1672121 60.2760606,47.1672121 L60.2760606,47.1672121 Z M57.9799394,53.8183636 C57.3201212,53.8183636 56.7846667,53.2817576 56.7846667,52.6230909 C56.7846667,51.9632727 57.3201212,51.4266667 57.9799394,51.4266667 C58.6397576,51.4266667 59.1740606,51.9632727 59.1740606,52.6230909 C59.1740606,53.2817576 58.6397576,53.8183636 57.9799394,53.8183636 L57.9799394,53.8183636 Z M44.424303,53.8782424 C42.7684242,52.7117576 41.154,52.6104242 39.5073333,52.6058182 L38.9039394,52.6035152 C38.301697,52.5989091 37.698303,52.5989091 37.0960606,52.6035152 L36.4903636,52.6058182 C34.846,52.6115758 33.2304242,52.7129091 31.575697,53.8782424 C29.1621212,55.5778788 28.4861818,58.9633333 30.096,61.2698182 C31.1473333,62.776 33.1820606,63.27 34.7262424,62.398303 C35.7038788,61.8467273 37.2204242,60.4833333 36.3970909,57.5573333 C36.2151515,56.9101818 35.5449697,56.5324848 34.8966667,56.7155758 C34.2483636,56.8986667 33.8718182,57.5688485 34.0549091,58.2171515 C34.4510303,59.624303 33.9904242,60.0192727 33.5298182,60.2795152 C33.0726667,60.5386061 32.4266667,60.3578182 32.0927273,59.8776364 C31.157697,58.5395758 31.808303,56.6890909 32.9770909,55.8680606 C33.9616364,55.173697 34.9369697,55.0447273 36.4995758,55.0389697 L37.1110303,55.0366667 C37.7052121,55.0332121 38.2982424,55.0332121 38.8924242,55.0366667 L39.5015758,55.0389697 C41.0641818,55.0447273 42.0395152,55.173697 43.0263636,55.8680606 C44.194,56.6902424 44.8434545,58.5395758 43.9107273,59.8776364 C43.5756364,60.3578182 42.9296364,60.5374545 42.4736364,60.2795152 C42.0130303,60.0192727 41.5524242,59.624303 41.9473939,58.2171515 C42.1304848,57.57 41.7527879,56.8975152 41.1056364,56.7155758 C40.4584848,56.5324848 39.788303,56.9113333 39.6052121,57.5573333 C38.7830303,60.4833333 40.2995758,61.8467273 41.2760606,62.398303 C41.7907879,62.6896364 42.3607879,62.8289697 42.9307879,62.8289697 C44.0684848,62.8289697 45.2073333,62.2739394 45.906303,61.2698182 C47.5149697,58.9633333 46.8378788,55.5778788 44.424303,53.8782424 L44.424303,53.8782424 Z" id="Shape"></path>
        </g>
    </g>
</svg>