<svg width="76px" height="91px" viewBox="0 0 76 91" version="1.1" xmlns="http://www.w3.org/2000/svg" xmlns:xlink="http://www.w3.org/1999/xlink">
    <g id="Page-1" stroke="none" stroke-width="1" fill="none" fill-rule="evenodd">
        <g id="bullTerrier" fill="#1D1D1B">
            <path d="M25.6358209,33.5688889 C19.2835821,33.5688889 14.0656716,38.22 14.0656716,43.8822222 C14.0656716,49.5444444 19.2835821,54.0944444 25.6358209,54.0944444 C31.9880597,54.0944444 37.2059701,49.5444444 37.2059701,43.8822222 C37.2059701,38.22 31.9880597,33.5688889 25.6358209,33.5688889 L25.6358209,33.5688889 Z M25.6358209,48.6344444 C22.6865672,48.6344444 20.3044776,46.5111111 20.3044776,43.8822222 C20.3044776,41.2533333 22.6865672,39.13 25.6358209,39.13 C28.5850746,39.13 30.9671642,41.2533333 30.9671642,43.8822222 C30.9671642,46.5111111 28.5850746,48.6344444 25.6358209,48.6344444 L25.6358209,48.6344444 Z M25.6358209,41.2533333 C24.0477612,41.2533333 22.6865672,42.4666667 22.6865672,43.8822222 C22.6865672,45.2977778 24.0477612,46.5111111 25.6358209,46.5111111 C27.2238806,46.5111111 28.5850746,45.2977778 28.5850746,43.8822222 C28.5850746,42.4666667 27.2238806,41.2533333 25.6358209,41.2533333 L25.6358209,41.2533333 Z M50.5910448,41.2533333 C49.0029851,41.2533333 47.641791,42.4666667 47.641791,43.8822222 C47.641791,45.2977778 49.0029851,46.5111111 50.5910448,46.5111111 C52.1791045,46.5111111 53.5402985,45.2977778 53.5402985,43.8822222 C53.5402985,42.4666667 52.1791045,41.2533333 50.5910448,41.2533333 L50.5910448,41.2533333 Z M30.8537313,77.2488889 C30.5134328,77.2488889 30.1731343,77.5522222 30.1731343,77.8555556 C30.1731343,78.1588889 30.5134328,78.4622222 30.8537313,78.4622222 C31.1940299,78.4622222 31.5343284,78.1588889 31.5343284,77.8555556 C31.5343284,77.5522222 31.1940299,77.2488889 30.8537313,77.2488889 L30.8537313,77.2488889 Z M28.1313433,75.4288889 C27.7910448,75.4288889 27.4507463,75.7322222 27.4507463,76.0355556 C27.4507463,76.3388889 27.7910448,76.6422222 28.1313433,76.6422222 C28.4716418,76.6422222 28.8119403,76.3388889 28.8119403,76.0355556 C28.8119403,75.7322222 28.4716418,75.4288889 28.1313433,75.4288889 L28.1313433,75.4288889 Z M48.0955224,76.6422222 C48.4358209,76.6422222 48.7761194,76.3388889 48.7761194,76.0355556 C48.7761194,75.7322222 48.4358209,75.4288889 48.0955224,75.4288889 C47.7552239,75.4288889 47.4149254,75.7322222 47.4149254,76.0355556 C47.4149254,76.44 47.7552239,76.6422222 48.0955224,76.6422222 L48.0955224,76.6422222 Z M48.0955224,78.4622222 C47.7552239,78.4622222 47.4149254,78.7655556 47.4149254,79.0688889 C47.4149254,79.3722222 47.7552239,79.6755556 48.0955224,79.6755556 C48.4358209,79.6755556 48.7761194,79.3722222 48.7761194,79.0688889 C48.7761194,78.7655556 48.4358209,78.4622222 48.0955224,78.4622222 L48.0955224,78.4622222 Z M28.1313433,78.4622222 C27.7910448,78.4622222 27.4507463,78.7655556 27.4507463,79.0688889 C27.4507463,79.3722222 27.7910448,79.6755556 28.1313433,79.6755556 C28.4716418,79.6755556 28.8119403,79.3722222 28.8119403,79.0688889 C28.8119403,78.7655556 28.4716418,78.4622222 28.1313433,78.4622222 L28.1313433,78.4622222 Z M45.3731343,77.2488889 C45.0328358,77.2488889 44.6925373,77.5522222 44.6925373,77.8555556 C44.6925373,78.1588889 45.0328358,78.4622222 45.3731343,78.4622222 C45.7134328,78.4622222 46.0537313,78.1588889 46.0537313,77.8555556 C46.0537313,77.5522222 45.7134328,77.2488889 45.3731343,77.2488889 L45.3731343,77.2488889 Z M16.1074627,27.5022222 L15.880597,26.8955556 C15.6537313,26.0866667 15.4268657,25.1766667 15.0865672,24.3677778 C14.8597015,23.5588889 14.519403,22.6488889 14.2925373,21.84 C13.7253731,20.1211111 13.158209,18.5033333 12.4776119,16.7844444 C11.9104478,15.0655556 11.2298507,13.4477778 10.4358209,11.83 C9.75522388,10.2122222 8.96119403,8.49333333 8.05373134,6.97666667 C8.28059701,8.79666667 8.62089552,10.5155556 8.96119403,12.2344444 C9.30149254,13.9533333 9.75522388,15.6722222 10.2089552,17.3911111 C10.6626866,19.11 11.2298507,20.8288889 11.6835821,22.5477778 C11.9104478,23.3566667 12.2507463,24.2666667 12.4776119,25.0755556 C12.7044776,25.7833333 12.9313433,26.39 13.158209,27.0977778 L12.5910448,27.6033333 C12.2507463,27.9066667 11.9104478,28.21 11.5701493,28.6144444 C10.8895522,29.4233333 10.3223881,30.3333333 9.98208955,31.3444444 C9.64179104,32.3555556 9.64179104,33.3666667 9.86865672,34.2766667 C9.98208955,34.7822222 10.0955224,35.1866667 10.3223881,35.6922222 C10.5492537,36.0966667 10.7761194,36.5011111 11.1164179,36.9055556 C10.7761194,35.9955556 10.6626866,35.0855556 10.7761194,34.2766667 C10.8895522,33.4677778 11.1164179,32.5577778 11.4567164,31.85 C11.9104478,31.1422222 12.3641791,30.4344444 13.0447761,29.9288889 L15.3134328,28.1088889 L16.1074627,27.5022222 L16.1074627,27.5022222 Z M75.7731343,27.8055556 L72.3701493,3.13444444 C72.1432836,1.61777778 70.7820896,0.404444444 69.080597,0.202222222 C67.2656716,6.10622664e-16 65.6776119,0.808888889 64.9970149,2.32555556 L53.9940299,25.8844444 C53.5402985,26.7944444 52.519403,27.5022222 51.3850746,27.5022222 C51.158209,27.5022222 50.5910448,27.3 50.1373134,27.0977778 C47.8686567,26.39 43.7850746,24.9744444 38,24.9744444 C32.2149254,24.9744444 28.1313433,26.2888889 25.8626866,27.0977778 C25.4089552,27.3 24.841791,27.5022222 24.7283582,27.5022222 C23.5940299,27.5022222 22.5731343,26.8955556 22.119403,25.8844444 L11.2298507,2.22444444 C10.5492537,0.808888889 8.96119403,-0.101111111 7.14626866,0.101111111 C5.44477612,0.303333333 4.08358209,1.51666667 3.85671642,3.03333333 L0.453731343,27.7044444 C-0.340298507,33.1644444 3.06268657,38.4222222 8.50746269,40.6466667 L20.9850746,79.2711111 C21.6656716,81.4955556 23.480597,83.2144444 25.7492537,84.1244444 C28.1313433,88.27 32.8955224,90.8988889 38.1134328,90.8988889 C43.3313433,90.8988889 48.0955224,88.27 50.4776119,84.1244444 C52.7462687,83.2144444 54.4477612,81.4955556 55.241791,79.2711111 L67.719403,40.6466667 C73.1641791,38.5233333 76.4537313,33.2655556 75.7731343,27.8055556 L75.7731343,27.8055556 Z M38.1134328,88.8766667 C34.5970149,88.8766667 31.3074627,87.36 29.1522388,84.9333333 L29.2656716,84.9333333 L30.8537313,84.9333333 C33.9164179,84.9333333 36.638806,83.4166667 38.1134328,81.2933333 C39.5880597,83.5177778 42.3104478,84.9333333 45.3731343,84.9333333 L46.961194,84.9333333 L47.0746269,84.9333333 C44.919403,87.4611111 41.6298507,88.8766667 38.1134328,88.8766667 L38.1134328,88.8766667 Z M66.1313433,39.0288889 L65.5641791,39.2311111 L52.8597015,78.8666667 C52.0656716,81.1922222 49.6835821,82.81 47.0746269,82.81 L45.3731343,82.81 C42.0835821,82.81 39.4746269,80.4844444 39.361194,77.6533333 C39.4746269,77.5522222 39.5880597,77.5522222 39.5880597,77.4511111 L44.1253731,73.4066667 C45.1462687,72.4966667 44.3522388,71.0811111 42.9910448,71.0811111 L32.8955224,71.0811111 C31.5343284,71.0811111 30.8537313,72.5977778 31.761194,73.4066667 L36.2985075,77.4511111 C36.4119403,77.5522222 36.4119403,77.5522222 36.5253731,77.6533333 C36.4119403,80.4844444 33.6895522,82.81 30.5134328,82.81 L28.9253731,82.81 C26.2029851,82.81 23.8208955,81.1922222 23.1402985,78.8666667 L10.6626866,39.2311111 L10.0955224,39.0288889 C5.21791045,37.2088889 2.26865672,32.76 2.94925373,28.1088889 L6.35223881,3.43777778 C6.46567164,2.62888889 7.25970149,2.42666667 7.48656716,2.42666667 C7.71343284,2.42666667 8.50746269,2.32555556 8.96119403,3.13444444 L19.9641791,26.6933333 C20.758209,28.5133333 22.6865672,29.6255556 24.841791,29.6255556 C25.2955224,29.6255556 25.8626866,29.4233333 26.8835821,29.12 C28.9253731,28.4122222 32.7820896,27.1988889 38.1134328,27.1988889 C43.4447761,27.1988889 47.3014925,28.5133333 49.3432836,29.12 C50.3641791,29.4233333 50.9313433,29.6255556 51.3850746,29.6255556 C53.5402985,29.6255556 55.4686567,28.5133333 56.2626866,26.6933333 L67.2656716,3.13444444 C67.6059701,2.32555556 68.4,2.32555556 68.7402985,2.42666667 C68.9671642,2.42666667 69.761194,2.62888889 69.8746269,3.43777778 L73.2776119,28.1088889 C73.958209,32.76 71.0089552,37.2088889 66.1313433,39.0288889 L66.1313433,39.0288889 Z M63.6358209,16.6833333 C62.9552239,18.4022222 62.3880597,20.02 61.8208955,21.7388889 C61.480597,22.5477778 61.2537313,23.4577778 61.0268657,24.2666667 C60.8,25.0755556 60.4597015,25.9855556 60.2328358,26.7944444 L60.119403,27.5022222 L60.5731343,27.9066667 L62.841791,29.7266667 C63.5223881,30.2322222 63.9761194,30.94 64.4298507,31.6477778 C64.7701493,32.3555556 64.9970149,33.2655556 65.1104478,34.0744444 C65.1104478,34.9844444 64.9970149,35.7933333 64.7701493,36.7033333 C65.1104478,36.2988889 65.3373134,35.8944444 65.5641791,35.49 C65.7910448,35.0855556 65.9044776,34.58 66.0179104,34.0744444 C66.2447761,33.1644444 66.1313433,32.1533333 65.9044776,31.1422222 C65.6776119,30.1311111 65.1104478,29.2211111 64.3164179,28.4122222 C63.9761194,28.0077778 63.6358209,27.7044444 63.2955224,27.4011111 L62.7283582,26.8955556 C62.9552239,26.2888889 63.1820896,25.5811111 63.4089552,24.8733333 C63.6358209,24.0644444 63.9761194,23.1544444 64.2029851,22.3455556 C64.7701493,20.6266667 65.2238806,18.9077778 65.6776119,17.1888889 C66.1313433,15.47 66.5850746,13.7511111 66.9253731,12.0322222 C67.2656716,10.3133333 67.6059701,8.59444444 67.8328358,6.77444444 C66.9253731,8.39222222 66.2447761,10.01 65.4507463,11.6277778 C64.8835821,13.3466667 64.2029851,14.9644444 63.6358209,16.6833333 L63.6358209,16.6833333 Z" id="Shape"></path>
        </g>
    </g>
</svg>