<svg xmlns="http://www.w3.org/2000/svg" xmlns:xlink="http://www.w3.org/1999/xlink" version="1.1" width="45px" heigh="50px" x="0px" y="0px" viewBox="0 0 100 125" enable-background="new 0 0 100 100" xml:space="preserve"><g><path d="M43,38.5c-1.1,0-2,0.9-2,2.1c0,1.1,0.9,2.1,2,2.1c1.1,0,2.1-0.9,2.1-2.1C45.1,39.4,44.2,38.5,43,38.5z"/><circle cx="29.6" cy="56.3" r="0.7"/><circle cx="24.6" cy="53.3" r="0.7"/><circle cx="29.6" cy="51.3" r="0.7"/><path d="M83.2,45.7C80,31,70.5,20.5,64,20.3c-3.4-0.1-5.3,1.5-6.2,2.5C44.3,14.6,35,23.9,34.9,24c-3.6,3.6-4.7,7.2-5.6,10.1   c-0.3,1-0.6,1.9-1,2.8c-1.3,2.8-4.8,7.8-13.8,9c-0.5,0.1-0.9,0.5-0.9,1c0,0.5,0.1,12.4,9.3,16.6c0.7,0.3,1.5,0.6,2.3,0.8   c0.3,2.5,2.5,7.3,8.3,7.3c5.6,0,9-2,13.2-4.5c0.8-0.5,1.7-1,2.6-1.5c1.1-0.6,2.5-0.6,3.6,0.1c0.4,0.3,0.8,0.6,1.1,1   c-1.4,0.6-2.2,1.2-2.9,1.8c-0.5,0.5-0.6,0.8-0.5,1.2l1.7,8.3c0,0.2,0.1,0.4,0.3,0.5c0.2,0.2,1.3,1.1,4.1,1.1   c2.3,0,5.9-0.6,11.1-2.7c0.9,0.3,1.9,0.5,2.9,0.5c0.4,0,0.8,0,1.2-0.1c3.5-0.5,6.5-2.3,8.6-5.4C84.7,66.3,85.6,56.9,83.2,45.7z    M54.7,68.7c0,0.2,0,0.3,0,0.5c0,0.2,0,0.4,0.1,0.6c-0.9,0.1-1.5,0-1.7-0.1C53.5,69.4,54.1,69,54.7,68.7z M54.2,77.4l-1.2-5.8   c0.4,0.1,0.8,0.1,1.3,0.1c1.6,0,3.9-0.4,6.7-1.3c0.8,1.6,1.8,3,2.9,4.1c0.5,0.5,1,0.9,1.5,1.3C57.9,78.6,55,77.7,54.2,77.4z    M79,70.9c-1.8,2.6-4.4,4.2-7.3,4.6c-1.2,0.2-2.4,0-3.4-0.4c0,0-0.1,0-0.1,0c-1-0.4-1.9-1-2.8-1.9c-4.9-5-7.2-16.8-5.5-28.6   C61.7,32,57,30.3,56.4,30.1c-0.5-0.2-1.1,0.2-1.2,0.7c-0.2,0.5,0.2,1.1,0.7,1.2c0,0,3.6,1.5,2.1,12.1c-1.3,9-0.3,18.1,2.3,24.4   c-1.4,0.4-2.6,0.7-3.6,0.9c0-0.1,0-0.1,0-0.2c0.2-2.1-0.8-4.1-2.6-5.3c-1.8-1.1-3.9-1.2-5.7-0.2c-0.9,0.5-1.8,1.1-2.6,1.6   c-4.2,2.5-7.1,4.2-12.1,4.2c-4.3,0-5.7-3.3-6.1-4.8c0.7,0.1,1.5,0.2,2.3,0.3c0.5,1.2,2.1,2.8,6.7,1.8c6.7-1.4,13.1-8,14.4-14.4   c0.2,0,0.3,0,0.5,0c0.5,0,0.9-0.1,1.5-0.3c0.5-0.2,0.8-0.8,0.6-1.3c-0.2-0.5-0.8-0.8-1.3-0.6c-1.6,0.6-2.4-0.9-2.6-1.2   c-0.2-0.5-0.8-0.7-1.3-0.5c-0.5,0.2-0.7,0.8-0.5,1.3c0.2,0.5,0.7,1.2,1.3,1.7c-1.8,4.7-4.8,8-9.2,9.9c-5.7,2.5-12.3,1.8-16,0.1   c-3-1.4-4.9-3.8-6.1-6.3c0.3-0.6,1.1-2.4,2.5-3.5c0.4-0.3-0.7-0.5-1.5-1c-0.5-0.3-0.8-1.3-0.2-1.9c0.7-0.8,1.9-0.7,2.4,0.1   c0.4,0.7,0.4,1.6,0.7,1.4c0.9-0.7,3.4-2.4,3.1-3.4c-0.2-0.7-1.1-1.2-2.1-1.5c4.7-2.5,6.8-6,7.6-7.8c0.4-0.9,0.7-1.9,1.1-3   c0.9-2.8,1.9-6,5.1-9.3c0.1-0.1,8.6-8.6,21.1-0.4c0.2,0.1,0.5,0.2,0.8,0.1c0.3-0.1,0.5-0.2,0.6-0.5c0.1-0.1,1.4-2.5,5-2.3   c5.1,0.2,14.2,9.4,17.3,23.9C83.5,56.8,82.7,65.6,79,70.9z"/></g><text x="0" y="115" fill="#000000" font-size="5px" font-weight="bold" font-family="'Helvetica Neue', Helvetica, Arial-Unicode, Arial, Sans-serif">Created by Shirley Hernández Ticona</text><text x="0" y="120" fill="#000000" font-size="5px" font-weight="bold" font-family="'Helvetica Neue', Helvetica, Arial-Unicode, Arial, Sans-serif">from the Noun Project</text></svg>
