<svg width="76px" height="92px" viewBox="0 0 76 92" version="1.1" xmlns="http://www.w3.org/2000/svg" xmlns:xlink="http://www.w3.org/1999/xlink">
    <g id="Page-1" stroke="none" stroke-width="1" fill="none" fill-rule="evenodd">
        <g id="greatDane" transform="translate(0.000000, 0.626316)" fill="#000000">
            <g id="Group">
                <path d="M54.4088,39.4576538 C54.0296,39.4576538 53.6592,39.2338616 53.448,38.8274775 C53.1256,38.2076012 53.292,37.3967056 53.8216,37.0165398 C54.156,36.7787021 54.3328,36.4996641 54.3944,36.1166892 C54.5952,34.8666365 53.5832,32.9639347 53.2128,32.3964951 L52.9008,31.9180105 L53.0032,31.3252889 C54.2776,24.2013935 50.6864,13.9856076 50.6496,13.8835433 C49.2912,10.5060603 48.8848,7.43289722 48.8032,5.28299397 C47.9264,13.8844797 45.2168,17.3190813 45.0984,17.4660912 L45.0104,17.5634736 C39.5792,22.9672591 41.2664,30.2803011 41.284,30.3542743 C41.4544,31.0546783 41.1056,31.7813007 40.508,31.9788745 C39.9112,32.1745756 39.288,31.7700642 39.1192,31.0696602 C39.032,30.7054127 37.0472,22.0983087 43.4928,15.6186351 C43.7608,15.2431512 45.98,11.9377685 46.6392,4.22396062 L46.6592,4.00859574 L46.736,3.81102188 C47.1272,2.80161609 48.2624,1.09367901 50.0272,1.09367901 L51.3712,1.09367901 L51.1344,2.64243335 C51.128,2.68363359 50.4856,7.29337824 52.7056,12.817019 C52.8816,13.3076764 56.4448,23.4485528 55.3,31.292516 C55.8632,32.2841308 56.9376,34.5117527 56.6072,36.5942374 C56.4296,37.7141347 55.872,38.6383309 54.9952,39.2656982 C54.8128,39.3958535 54.6088,39.4576538 54.4088,39.4576538 L54.4088,39.4576538 Z" id="Shape"></path>
                <path d="M43.176,90.8371579 L42.8856,89.3867223 C40.592,77.979875 32.0136,70.8644069 31.9264,70.7941792 C31.416,70.377495 31.2912,69.5581721 31.6464,68.961705 C32.0024,68.3671107 32.7048,68.2172917 33.2128,68.6339759 C33.58,68.933614 41.8944,75.8327808 44.752,87.3463742 L73.3016,75.0031579 C71.9784,69.5825177 65.7872,46.2950203 54.6808,35.7131141 C54.1984,35.2542933 54.1264,34.4246704 54.5184,33.8609762 C54.9104,33.2972821 55.6184,33.2111361 56.1016,33.6708933 C69.2352,46.1835924 75.4896,74.3027539 75.7496,75.4938153 L76,76.6436764 L43.176,90.8371579 L43.176,90.8371579 Z" id="Shape"></path>
                <path d="M18.7488,79.9640409 C17.6496,79.9640409 16.568,79.7243305 15.5128,79.248655 C6.356,75.1230131 2.62,54.1389836 2.4648,53.2456875 C2.3424,52.5340471 2.7352,51.8392613 3.344,51.6950604 C3.9544,51.5452414 4.5464,52.0096804 4.6712,52.7231936 C4.7056,52.9263857 8.312,73.186602 16.3224,76.7916227 C18.9056,77.954593 21.6544,77.2326525 24.7224,74.5808555 C24.868,74.4675548 34.5776,66.9288479 39.8824,61.0634324 C40.3336,60.5643477 41.0464,60.5877569 41.4728,61.1186782 C41.9,61.6467903 41.8784,62.4792224 41.4272,62.978307 C35.9792,69.0010325 26.4144,76.4255024 26.0104,76.7382497 C23.5336,78.8797256 21.096,79.9640409 18.7488,79.9640409 L18.7488,79.9640409 Z" id="Shape"></path>
                <path d="M6.5696,72.8260999 C5.5672,72.8260999 4.82,72.425334 4.2976,71.9740041 C0.1336,68.3802199 2.0184,54.0622013 2.2472,52.4422829 C2.3488,51.7231515 2.9288,51.2409215 3.5392,51.3579676 C4.1528,51.4768865 4.5672,52.1538813 4.4664,52.8702035 C3.6904,58.3788624 3.3224,67.8614714 5.6328,69.8550011 C5.86,70.0488295 6.5496,70.6471692 8.34,69.5993723 C8.8968,69.2735159 9.5728,69.5394447 9.8504,70.1883484 C10.1288,70.8391249 9.9016,71.6294203 9.3464,71.9552768 C8.2608,72.5901349 7.3408,72.8260999 6.5696,72.8260999 L6.5696,72.8260999 Z" id="Shape"></path>
                <path d="M10.4376,75.949827 C9.3424,75.949827 7.3448,75.4741515 5.892,72.3831974 C5.592,71.7464665 5.7912,70.945871 6.336,70.5966053 C6.8816,70.2454669 7.564,70.4776865 7.8632,71.1162901 C9.0432,73.6220136 10.5384,73.3401665 10.7072,73.2980299 C11.3072,73.1500836 11.908,73.5901771 12.0448,74.2896447 C12.1808,74.9900487 11.8264,75.6829618 11.2312,75.8571264 C11.192,75.8674265 10.8928,75.949827 10.4376,75.949827 L10.4376,75.949827 Z" id="Shape"></path>
                <path d="M7.364,54.6315137 C6.9248,54.6315137 6.3416,54.447049 5.8192,54.0631377 C4.8912,54.6408774 3.6296,54.2335568 1.8336,52.5836746 C0.164,51.0489658 -0.0728,49.4908478 0.0208,48.4524145 C0.2928,45.4700792 3.5256,43.5411591 3.8936,43.3314124 L4.2616,43.1207294 L4.66,43.2368391 C7.2064,43.9812525 8.4328,46.6592679 8.6688,47.2323257 C9.8952,49.5367299 9.916,50.7895916 9.8904,51.1201299 L9.8736,51.3851223 L9.7688,51.6192145 C8.4248,54.6315137 7.7864,54.6315137 7.364,54.6315137 L7.364,54.6315137 Z M6.9016,51.7287697 C6.94,51.7690336 6.988,51.8074247 7.0392,51.8439431 C7.2056,51.562096 7.4152,51.1650756 7.6168,50.7427732 C7.5496,50.4393896 7.3464,49.71464 6.728,48.5647788 L6.6488,48.3906142 C6.644,48.377505 5.9464,46.6068312 4.5032,45.936391 C3.6328,46.5337944 2.3528,47.6864647 2.2576,48.7305161 C2.2096,49.2792284 2.5336,49.8775682 3.2224,50.51149 C3.8232,51.062075 4.2376,51.3542221 4.5064,51.5077866 C4.4656,51.079866 4.5088,50.6697364 4.752,50.3064252 L5.0896,49.7961041 L6.1448,49.7773767 L6.6776,50.3878893 L6.8056,50.7334095 C6.8656,50.8897831 7.0072,51.2587125 6.9016,51.7287697 L6.9016,51.7287697 Z" id="Shape"></path>
                <path d="M4.832,45.578698 C4.328,45.578698 3.8696,45.1798048 3.7408,44.5814651 C3.5912,43.8754428 3.9576,43.1609933 4.56,42.9849559 C12.1232,40.7723159 15.7096,38.8443321 16.8368,38.1654646 C17.228,36.0614434 18.0808,32.7813428 18.12,32.6277782 L18.1992,32.3272038 L18.384,32.1006025 C25.4152,23.5028622 39.52,22.7032031 40.1184,22.6741756 C40.72,22.6638756 41.2624,23.2060332 41.2888,23.9326556 C41.3152,24.6592779 40.8344,25.273536 40.2144,25.3044362 C40.0784,25.3109908 26.6704,26.077877 20.1944,33.6999208 C19.9472,34.6699991 19.1832,37.7131983 18.9424,39.2610163 L18.8536,39.8368833 L18.4272,40.1449487 C18.2856,40.2479493 14.8384,42.6928088 5.108,45.5403069 C5.0152,45.5674616 4.9232,45.578698 4.832,45.578698 L4.832,45.578698 Z" id="Shape"></path>
                <path d="M32.2672,26.5451251 C32.0976,26.5451251 31.9264,26.5011158 31.764,26.4065425 C31.208,26.0806861 30.9832,25.2903907 31.26,24.6396142 C33.6928,18.947427 32.8008,15.6064623 32.7912,15.5736894 C31.6696,11.2654556 32.256,3.33534642 32.28,3.00106268 L32.5088,0 L34.2352,2.23324009 C37.3616,6.27835423 37.3976,10.2036131 37.3976,10.3684141 C37.3976,13.2234032 38.2576,14.364837 38.296,14.4116555 C41.0896,18.0672401 41.6,22.3979468 41.62,22.5805387 C41.7016,23.3015429 41.2664,23.9626194 40.6512,24.0571927 C40.0376,24.1414659 39.4712,23.6451903 39.3904,22.9260589 L39.3904,22.9260589 C39.3856,22.8886041 38.9344,19.1974375 36.6432,16.1991839 C36.528,16.0690286 35.1472,14.3376823 35.1472,10.3684141 C35.1472,10.2906954 35.116,8.94232407 34.3616,7.0920589 C34.3232,9.58841869 34.4056,12.7364913 34.9312,14.7609211 C34.9672,14.8760945 36.1752,19.0242092 33.2728,25.8156937 C33.0768,26.27826 32.68,26.5451251 32.2672,26.5451251 L32.2672,26.5451251 Z" id="Shape"></path>
                <path d="M49.1192,32.9124344 C48.7352,32.9124344 48.3592,32.6802149 48.1488,32.2635307 C47.8368,31.642718 48.0088,30.845868 48.532,30.4731931 C48.6328,30.3945381 50.2984,29.0358667 49.252,25.0881349 C49.1872,24.8062879 47.9608,19.3444474 48.7896,15.8555365 L48.828,15.7188266 C48.844,15.6701354 49.1536,14.6288931 48.7688,13.0651568 C48.1768,14.4809468 47.6736,15.9650917 47.6736,16.7375961 L47.6736,17.3471723 L47.2752,17.7441928 C47.2248,17.7938203 42.1952,22.857704 43.9576,27.7202682 C44.2008,28.3897721 43.9336,29.1622765 43.3624,29.4469327 C42.7904,29.7325253 42.1304,29.4188416 41.8864,28.7493378 C39.784,22.9504045 44.1376,17.5681554 45.4656,16.1083561 C45.752,13.7112514 47.4816,10.2391952 47.852,9.51444554 L48.7544,7.75500816 L49.7448,9.44983607 C51.8312,13.0220839 51.1168,16.0222102 50.9488,16.5999499 C50.4144,18.9277632 51.1024,22.9831774 51.4152,24.3587035 C53.0072,30.3645743 49.824,32.6371419 49.6872,32.7307788 C49.5104,32.8534432 49.3136,32.9124344 49.1192,32.9124344 L49.1192,32.9124344 Z" id="Shape"></path>
                <path d="M27.608,43.5327318 C27.508,43.5327318 27.408,43.530859 27.3056,43.5252408 L26.9392,43.5055771 L26.6536,43.2377755 C26.5368,43.127284 23.7912,40.4829779 25.2328,35.4247125 L25.4536,34.6456535 L26.1584,34.5351619 C26.1584,34.5351619 26.3904,34.4986435 26.7792,34.4986435 C27.9928,34.4986435 31.0256,34.8694457 32.976,38.2956199 L33.3296,38.9154962 L33.0568,39.5896818 C32.992,39.7498009 31.4168,43.5327318 27.608,43.5327318 L27.608,43.5327318 Z M27.1632,37.1485678 C26.8288,39.1458429 27.4568,40.3734227 27.8232,40.8931075 C29.3024,40.8022797 30.2168,39.7872557 30.672,39.0980881 C29.5272,37.5886613 28.044,37.2216046 27.1632,37.1485678 L27.1632,37.1485678 Z" id="Shape"></path>
                <path d="M27.5728,42.2133878 C26.3584,42.2133878 25.3984,40.9745716 25.2872,39.2694436 C25.1744,37.554952 26.0192,36.1925351 27.3368,35.9556337 L27.7616,35.8788514 L28.1192,36.1513348 C28.4376,36.392918 30.0272,37.6832345 30.036,39.4286264 C30.0392,40.0578664 29.844,40.9670807 28.8864,41.7133668 C28.4608,42.0448414 28.02,42.2133878 27.5728,42.2133878 L27.5728,42.2133878 Z M27.5264,38.9772965 C27.528,39.1851704 27.576,39.3892989 27.632,39.5157087 C27.7792,39.4014717 27.8048,39.356526 27.8048,39.356526 C27.7824,39.2984711 27.6752,39.1514611 27.5264,38.9772965 L27.5264,38.9772965 Z" id="Shape"></path>
                <path d="M35.9696,25.4832827 C35.7336,25.4832827 35.4976,25.3980731 35.2952,25.2192266 C34.7984,24.783815 34.6968,23.9579376 35.0712,23.375516 C37.2496,19.9764965 35.5928,18.2367229 35.576,18.2198682 C35.3024,17.9530031 34.3184,16.7254233 33.7656,12.7467914 C33.308,9.46013613 32.4584,8.15671047 32.4512,8.1436013 C32.0728,7.57709805 32.1464,6.75215695 32.6248,6.30082708 C33.104,5.84949722 33.7976,5.92159763 34.1896,6.47311898 C34.3136,6.64821999 35.4256,8.29903856 35.9856,12.3235526 C36.4128,15.3957793 37.0776,16.2591115 37.084,16.2675389 C38.1832,17.3752634 39.6096,20.6797096 36.8696,24.9551705 C36.6496,25.3016271 36.312,25.4832827 35.9696,25.4832827 L35.9696,25.4832827 Z" id="Shape"></path>
            </g>
        </g>
    </g>
</svg>