<svg width="76px" height="90px" viewBox="0 0 76 90" version="1.1" xmlns="http://www.w3.org/2000/svg" xmlns:xlink="http://www.w3.org/1999/xlink">
    <g id="Page-1" stroke="none" stroke-width="1" fill="none" fill-rule="evenodd">
        <g id="husky" transform="translate(0.000000, -1.000000)" fill="#000000">
            <g id="Group">
                <path d="M29.707,57.263 C30.104,56.072 31.096,53.592 29.112,53.195 C27.128,52.798 24.349,51.111 22.265,46.745 C22.876,45.968 24.136,45.572 25.322,45.401 C24.845,45.869 24.547,46.52 24.547,47.241 C24.547,48.666 25.702,49.821 27.127,49.821 C28.419,49.821 29.48,48.868 29.668,47.628 C30.206,48.55 30.689,49.57 30.997,50.317 C31.692,51.309 33.875,50.317 35.462,47.936 C35.562,51.706 34.173,55.576 29.707,57.263 L29.707,57.263 Z M74.919,55.576 C71.545,64.705 60.829,71.353 50.013,86.138 C46.144,89.71 41.083,91 38.007,91 L37.907,91 C34.831,91 29.856,89.71 25.986,86.138 C15.171,71.353 4.454,64.705 1.081,55.576 C-2.169,46.782 9.153,11.795 12.165,8.709 C13.938,4.141 15.698,0.918 17.701,1.001 C23.734,1.184 27.558,5.673 30.324,10.924 C32.179,10.295 34.437,9.771 36.72,9.53 C37.176,9.502 38.854,9.484 39.28,9.53 C41.563,9.77 43.821,10.295 45.676,10.924 C48.442,5.673 52.265,1.184 58.299,1.001 C60.302,0.918 62.062,4.14 63.835,8.709 C66.848,11.795 78.169,46.782 74.919,55.576 L74.919,55.576 Z M44.308,19.061 C48.376,20.152 60.283,32.06 64.352,34.441 C68.123,34.441 67.13,30.273 66.138,29.579 C68.817,27.594 67.329,23.725 66.634,21.442 C65.146,14.099 64.848,11.916 63.459,10.527 C61.276,8.542 59.986,2.787 58.002,2.787 C54.429,2.788 48.376,4.276 44.308,19.061 L44.308,19.061 Z M9.862,29.579 C8.87,30.274 7.877,34.441 11.648,34.441 C15.716,32.06 27.623,20.152 31.692,19.061 C27.624,4.276 21.571,2.788 17.999,2.788 C16.015,2.788 14.725,8.543 12.542,10.528 C11.153,11.917 10.855,14.1 9.367,21.443 C8.671,23.724 7.183,27.594 9.862,29.579 L9.862,29.579 Z M64.898,38.807 C63.41,38.807 59.937,44.661 57.158,45.257 C60.432,41.983 49.964,41.933 49.418,41.387 C48.872,40.841 46.292,39.651 48.723,37.22 C45.052,37.22 44.357,37.915 40.785,41.487 C40.785,33.381 39.169,28.109 38,25.352 C36.83,28.109 35.215,33.381 35.215,41.487 C31.643,37.915 30.948,37.22 27.277,37.22 C29.708,39.651 27.128,40.842 26.582,41.387 C26.036,41.933 15.568,41.982 18.842,45.257 C16.064,44.662 12.591,38.807 11.102,38.807 C8.82,38.807 4.652,49.127 7.728,55.179 C10.804,61.232 19.933,70.758 21.62,75.322 C24.383,82.798 30.403,88.963 38,89.013 C45.597,88.963 51.617,82.798 54.38,75.322 C56.067,70.758 65.196,61.232 68.272,55.179 C71.347,49.126 67.18,38.807 64.898,38.807 L64.898,38.807 Z M27.128,46.05 C26.47,46.05 25.937,46.583 25.937,47.241 C25.937,47.899 26.47,48.432 27.128,48.432 C27.786,48.432 28.319,47.899 28.319,47.241 C28.318,46.584 27.785,46.05 27.128,46.05 L27.128,46.05 Z M17.602,7.154 C17.155,7.601 16.114,12.512 15.816,20.996 C14.625,29.778 20.728,25.511 22.514,24.717 C21.919,23.526 21.174,21.443 22.812,18.912 C24.45,16.381 21.42,15.436 18.496,12.512 C17.304,11.321 18.346,10.428 17.602,7.154 L17.602,7.154 Z M50.678,45.401 C51.155,45.869 51.453,46.52 51.453,47.241 C51.453,48.666 50.25,49.453 48.873,49.821 C47.111,50.292 46.265,49.162 46.265,47.744 C45.754,48.635 45.298,49.601 45.003,50.317 C44.308,51.309 42.125,50.317 40.538,47.936 C40.439,51.707 41.828,55.576 46.293,57.263 C45.896,56.072 44.904,53.592 46.888,53.195 C48.872,52.798 51.651,51.111 53.735,46.745 C53.124,45.968 51.863,45.572 50.678,45.401 L50.678,45.401 Z M47.682,47.241 C47.682,47.899 48.215,48.432 48.873,48.432 C49.531,48.432 50.064,47.899 50.064,47.241 C50.064,46.583 49.531,46.05 48.873,46.05 C48.215,46.05 47.682,46.584 47.682,47.241 L47.682,47.241 Z M43.415,76.533 C43.039,77.848 41.061,81.119 38.241,81.463 L38.241,81.494 C38.16,81.494 38.08,81.49 38,81.485 C37.92,81.49 37.84,81.494 37.759,81.494 L37.759,81.463 C34.939,81.119 32.961,77.848 32.585,76.533 C31.059,74.052 30.543,70.013 37.561,69.706 C37.561,69.694 37.56,69.687 37.56,69.687 C37.71,69.687 37.856,69.689 37.999,69.692 C38.143,69.689 38.289,69.687 38.438,69.687 C38.438,69.687 38.438,69.694 38.437,69.706 C45.457,70.013 44.941,74.053 43.415,76.533 L43.415,76.533 Z M36.882,75.467 C36.252,74.621 34.904,74.178 34.03,74.265 L33.883,74.302 C33.489,74.471 33.238,74.843 33.195,75.323 C33.133,76.008 33.481,76.787 34.005,77.135 L34.542,76.328 C34.316,76.178 34.131,75.732 34.161,75.411 C34.169,75.324 34.19,75.262 34.223,75.224 C34.233,75.223 34.244,75.223 34.255,75.223 C34.866,75.223 35.737,75.549 36.107,76.045 C36.294,76.295 36.325,76.551 36.206,76.849 L37.106,77.208 C37.346,76.603 37.267,75.984 36.882,75.467 L36.882,75.467 Z M42.806,75.322 C42.762,74.842 42.511,74.47 42.118,74.301 L41.971,74.264 C41.086,74.175 39.748,74.62 39.118,75.466 C38.733,75.984 38.654,76.602 38.896,77.208 L39.796,76.849 C39.677,76.551 39.708,76.295 39.895,76.045 C40.264,75.549 41.135,75.223 41.747,75.223 C41.758,75.223 41.768,75.223 41.779,75.224 C41.811,75.261 41.833,75.324 41.841,75.41 C41.87,75.731 41.685,76.178 41.46,76.328 L41.997,77.135 C42.521,76.785 42.868,76.006 42.806,75.322 L42.806,75.322 Z M57.505,12.512 C54.581,15.436 51.551,16.382 53.189,18.912 C54.827,21.442 54.082,23.526 53.487,24.717 C55.273,25.511 61.376,29.778 60.185,20.996 C59.887,12.512 58.845,7.6 58.399,7.154 C57.654,10.428 58.696,11.321 57.505,12.512 L57.505,12.512 Z" id="Shape"></path>
            </g>
        </g>
    </g>
</svg>