<svg xmlns="http://www.w3.org/2000/svg" xmlns:xlink="http://www.w3.org/1999/xlink" version="1.1" x="0px" y="0px" viewBox="0 0 100 125" enable-background="new 0 0 100 100" xml:space="preserve"><path fill="#000000" d="M85.649,24.053c-0.044-0.299-0.202-0.564-0.431-0.755c-0.006-0.005-0.012-0.009-0.018-0.014    c-0.039-0.031-0.076-0.066-0.119-0.093c-0.003-0.002-0.026-0.016-0.041-0.025c-0.004-0.003-0.008-0.007-0.013-0.009    c0,0-1.45-0.868-1.634-0.975c-0.001,0-0.001-0.001-0.001-0.001c-0.001,0-0.001,0-0.001-0.001    c-0.002-0.001-0.003-0.001-0.005-0.002c-4.787-2.773-7.556-3.221-12.329-3.221c-6.751,0-10.996,1.984-13.658,4.654    c-2.002-0.394-4.216-0.591-6.66-0.591h-0.493c-2.472,0-4.709,0.201-6.729,0.6c-2.661-2.675-6.908-4.663-13.667-4.663    c-4.774,0-7.543,0.448-12.337,3.225h-0.001c-0.186,0.108-1.632,0.974-1.632,0.974c-0.005,0.003-0.008,0.007-0.013,0.009    c-0.015,0.009-0.038,0.023-0.041,0.025c-0.043,0.027-0.08,0.061-0.119,0.093c-0.006,0.005-0.012,0.009-0.018,0.014    c-0.229,0.191-0.387,0.456-0.431,0.755c-1.498,10.182,2.625,16.208,12.971,18.963c0.077,0.022,0.384,0.124,0.728,0.24    c-0.038,0.786-0.06,1.592-0.06,2.428v0.717c0,3.461,1.569,7.09,3.459,10.456c-4.96,4.229-7.399,11.056-7.399,20.681v0.826h2.443    v-0.826c0-0.491,0.017-0.961,0.029-1.435c0.213-7.94,2.217-13.534,6.184-17.103c0.305-0.274,0.621-0.537,0.949-0.788    c0.323-0.247,0.654-0.486,1-0.71c0.92-0.595,1.924-1.107,3.007-1.545c0.3-0.121,0.593-0.248,0.905-0.358l0.409-0.143    c1.71-0.593,3.886-1.357,5.536-3.004c1.414-1.412,2.443-3.47,2.443-6.649v-4.443h-0.039c-0.108-3.151-0.914-5.548-2.44-7.204    c-1.737-1.884-4.396-2.82-8.018-2.82h-0.218c-0.829,0-1.603,0.053-2.332,0.15c1.832-2.527,4.422-4.216,7.848-5.147    c0.822-0.223,1.696-0.4,2.615-0.537c1.522-0.227,3.174-0.343,4.97-0.343h0.493c1.775,0,3.406,0.107,4.908,0.319    c0.927,0.131,1.805,0.303,2.632,0.519c3.513,0.918,6.132,2.614,7.956,5.203c-0.768-0.11-1.592-0.165-2.473-0.165h-0.218    c-3.622,0-6.281,0.936-8.018,2.82c-1.526,1.656-2.332,4.053-2.44,7.204h-0.039v4.443c0,3.179,1.028,5.237,2.443,6.649    c1.649,1.646,3.825,2.411,5.536,3.004l0.409,0.143c0.312,0.109,0.605,0.236,0.905,0.357c1.067,0.432,2.057,0.936,2.966,1.52    c0.346,0.223,0.678,0.46,1.002,0.706c0.329,0.25,0.647,0.511,0.953,0.785c3.991,3.567,6.005,9.171,6.219,17.134    c0.013,0.475,0.029,0.944,0.029,1.436v0.826h2.443v-0.826c0-9.652-2.451-16.491-7.438-20.717    c1.907-3.402,3.498-7.045,3.498-10.421v-0.717c0-0.836-0.023-1.642-0.06-2.428c0.344-0.116,0.649-0.217,0.723-0.238    C83.024,40.261,87.147,34.235,85.649,24.053z M74.128,40.023c-0.232-2.166-0.841-3.929-1.85-5.278V21.412    c3.752,0.087,6.047,0.655,9.888,2.881c0.035,0.02,0.179,0.106,0.391,0.233c0.202,0.121,0.465,0.278,0.753,0.451    C84.315,32.864,81.529,37.474,74.128,40.023z M69.836,21.428v11.224c-0.07-0.038-0.14-0.076-0.211-0.113    c-1.903-4.017-4.975-6.702-9.32-8.169C63.185,22.239,66.85,21.562,69.836,21.428z M17.597,24.977    c0.582-0.349,1.079-0.646,1.146-0.685c0,0,0.001-0.001,0.001-0.001c3.839-2.223,6.134-2.791,9.884-2.879v13.333    c-1.008,1.349-1.617,3.111-1.849,5.277C19.378,37.474,16.593,32.863,17.597,24.977z M31.071,32.652V21.428    c2.991,0.134,6.663,0.814,9.545,2.953c-4.343,1.468-7.416,4.147-9.322,8.152C31.219,32.571,31.145,32.611,31.071,32.652z     M27.869,42.417L27.869,42.417l1.137,0h0.067v-0.319c0-0.031,0.002-0.059,0.002-0.09c0.001-0.248,0.009-0.487,0.019-0.723    c0.037-0.885,0.139-1.685,0.306-2.404c0.117-0.507,0.265-0.978,0.449-1.405c0.309-0.716,0.715-1.322,1.221-1.823    c0.153-0.151,0.313-0.296,0.484-0.428c0.478-0.37,1.036-0.662,1.664-0.89c1.08-0.392,2.377-0.586,3.925-0.586h0.218    c5.45,0,7.883,2.326,8.055,7.726v0.943v1.154v2.235c0,4.433-2.389,5.875-5.04,6.88C39.95,52.848,39.516,53,39.083,53.15    l-0.417,0.145c-1.587,0.556-3.023,1.262-4.331,2.099c-1.661-3-2.995-6.149-2.995-8.993v-0.717c0-1.144,0.041-2.229,0.116-3.267    h-0.402h-0.823h-1.225H27.869z M71.902,42.417h-1.224h-0.825h-0.395c0.071,1.038,0.109,2.123,0.109,3.267v0.717    c0,2.767-1.359,5.929-3.04,8.966c-1.296-0.824-2.717-1.521-4.286-2.072l-0.417-0.145c-0.433-0.15-0.867-0.302-1.296-0.465    c-2.652-1.005-5.04-2.447-5.04-6.88v-2.234v-1.154v-0.943c0.172-5.4,2.606-7.726,8.055-7.726h0.218    c1.596,0,2.924,0.207,4.023,0.623c0.595,0.226,1.128,0.509,1.585,0.866c0.165,0.129,0.318,0.269,0.466,0.415    c0.507,0.502,0.912,1.107,1.222,1.824c0.188,0.435,0.338,0.915,0.456,1.433c0.162,0.71,0.262,1.497,0.299,2.367    c0.01,0.239,0.019,0.481,0.02,0.732c0,0.031,0.002,0.059,0.002,0.09v0.319L71.902,42.417l1.137,0v0H71.902z"/><path fill="#000000" d="M66.017,60.977c-0.3-0.282-0.608-0.556-0.932-0.813c-0.233-0.185-0.472-0.363-0.717-0.536l-0.183-0.33    c-0.031,0.049-0.062,0.099-0.092,0.148c-2.326-1.562-5.19-2.577-8.605-3.049c-0.785-0.109-1.599-0.188-2.443-0.24    c-0.763-0.047-1.547-0.073-2.358-0.073H50.22c-0.811,0-1.595,0.026-2.358,0.073c-0.843,0.051-1.658,0.131-2.443,0.24    c-3.431,0.474-6.307,1.496-8.638,3.071c-0.027-0.043-0.054-0.086-0.081-0.129l-0.16,0.289c-0.256,0.18-0.506,0.367-0.748,0.56    c-0.323,0.258-0.63,0.533-0.929,0.816c-2.793,2.641-4.54,6.357-5.261,11.17c-0.255,1.701-0.387,3.533-0.387,5.509v0.681h2.443v0    v-0.681c0-6.663,1.449-11.467,4.522-14.599c0.29-0.295,0.597-0.573,0.915-0.838c0.312-0.26,0.636-0.51,0.977-0.742    c2.954-2.015,6.972-2.977,12.149-2.977h0.468c5.162,0,9.172,0.957,12.124,2.961c0.341,0.231,0.666,0.479,0.979,0.739    c0.32,0.265,0.627,0.543,0.918,0.838c3.086,3.131,4.542,7.941,4.542,14.618v0.681v0h2.443v-0.681c0-1.976-0.132-3.808-0.387-5.509    C70.582,67.345,68.827,63.62,66.017,60.977z"/><path fill="#000000" d="M62.549,64.288c-0.307-0.271-0.629-0.527-0.966-0.768c-1.895-1.351-4.263-2.22-7.112-2.616    c-0.742-1.231-2.08-1.869-3.974-1.869h-0.085c-1.894,0-3.232,0.638-3.974,1.869c-2.856,0.396-5.228,1.269-7.126,2.626    c-0.337,0.241-0.659,0.497-0.966,0.768c-0.316,0.28-0.615,0.577-0.9,0.889c-2.596,2.847-3.881,7.045-3.881,12.639v0.537v0h2.215v0    v-0.537c0-4.577,0.877-8.03,2.72-10.46c0.278-0.366,0.579-0.708,0.901-1.028c0.301-0.299,0.622-0.578,0.962-0.837    c1.442-1.098,3.238-1.841,5.409-2.25c-0.012,0.177-0.018,0.36-0.018,0.548v0.124c0,0.555,0.053,1.061,0.154,1.522    c-1.949,0.466-3.539,1.29-4.791,2.459c-0.129,0.12-0.262,0.237-0.384,0.365c-0.003,0.003-0.005,0.006-0.008,0.009    c-2.045,2.156-3.058,5.372-3.058,9.689v0.397v0h2.152c1.504,4.079,4.974,6.088,10.512,6.088h0.242    c5.538,0,9.008-2.009,10.512-6.088h2.151v0v-0.397c0-4.474-1.091-7.763-3.288-9.917c-0.005-0.004-0.01-0.008-0.014-0.013    c-0.027-0.026-0.056-0.05-0.083-0.075c-1.262-1.2-2.873-2.042-4.854-2.516c0.101-0.461,0.154-0.967,0.154-1.522V63.8    c0-0.188-0.007-0.371-0.018-0.548c2.17,0.409,3.966,1.151,5.408,2.249c0.34,0.259,0.661,0.538,0.962,0.837    c0.326,0.324,0.631,0.67,0.912,1.041c1.838,2.429,2.711,5.879,2.711,10.448v0.537v0h2.215v0v-0.537    c0-5.601-1.288-9.803-3.892-12.651C63.165,64.865,62.866,64.568,62.549,64.288z M57.274,80.115    c-1.475,1.378-3.669,2.024-6.699,2.024h-0.242c-3.03,0-5.223-0.646-6.698-2.024h-0.018c0.003-0.003,0.007-0.005,0.01-0.008    c0.924-0.861,2.164-1.435,3.725-1.743c0.625-0.123,1.301-0.206,2.033-0.242c0.31-0.015,0.619-0.031,0.949-0.031h0.242    c0.33,0,0.639,0.016,0.949,0.031c0.732,0.036,1.408,0.119,2.033,0.242c1.561,0.308,2.801,0.882,3.725,1.743    c0.003,0.003,0.006,0.005,0.009,0.008H57.274z M39.884,78.365v-0.397c0-1.306,0.1-2.475,0.292-3.528    c0.109-0.6,0.253-1.157,0.428-1.678c0.723-2.155,2.008-3.646,3.937-4.536c0.713-0.329,1.517-0.574,2.408-0.744    c0.281,0.286,0.612,0.52,0.99,0.705c0.422,0.207,0.904,0.35,1.444,0.429v4.146v3.05c-3.066,0.135-5.415,0.932-7.116,2.417    c-0.052,0.046-0.107,0.089-0.158,0.135h-1.055H39.884z M42.052,80.116C42.052,80.116,42.052,80.116,42.052,80.116L42.052,80.116    L42.052,80.116z M58.798,78.365c-0.051-0.047-0.106-0.09-0.158-0.136c-1.701-1.485-4.05-2.282-7.116-2.417v-3.05v-4.146    c0.588-0.085,1.104-0.25,1.552-0.487c0.332-0.176,0.629-0.389,0.882-0.647c0.767,0.146,1.468,0.349,2.102,0.613    c2.098,0.872,3.483,2.401,4.243,4.667h0c0.175,0.521,0.318,1.079,0.428,1.679c0.192,1.053,0.292,2.221,0.292,3.526v0.397h-1.17    H58.798z"/><path fill="#000000" d="M38.262,45.934h0.084c2.322,0,3.526-1.032,3.581-3.517c0.001-0.059,0.005-0.115,0.005-0.176v-0.123    c0-2.609-1.208-3.694-3.586-3.694h-0.084c-2.378,0-3.586,1.085-3.586,3.694v0.123c0,0.061,0.004,0.117,0.005,0.176    C34.736,44.902,35.939,45.934,38.262,45.934z"/><path fill="#000000" d="M62.646,38.424h-0.084c-2.378,0-3.586,1.085-3.586,3.694v0.123c0,0.061,0.004,0.117,0.005,0.176    c0.055,2.485,1.259,3.517,3.581,3.517h0.084c2.323,0,3.526-1.032,3.581-3.517c0.001-0.059,0.005-0.115,0.005-0.176v-0.123    C66.232,39.509,65.024,38.424,62.646,38.424z"/></svg>