<svg xmlns="http://www.w3.org/2000/svg" xmlns:xlink="http://www.w3.org/1999/xlink" version="1.1" x="0px" y="0px" viewBox="0 0 100 125" enable-background="new 0 0 100 100" xml:space="preserve"><path d="M62.3,37.7c0.8-2.1,4.5-2,4.8,0.3c0.2,1.3-1.1,2.4-2.4,2.5C63,40.6,61.6,39.5,62.3,37.7"/><path d="M48.3,30.5c-2.2-0.1-2.9,2.9-0.9,3.8c2.7,1.2,4.2-4.1,0.7-3.8"/><path d="M55.1,45.3c-0.7,0-1.1-0.3-1.3-0.4c-0.4-0.3-0.8-0.8-0.9-1.4c-1,0.5-2.5,0.5-3.4-0.1C49,43,47.9,42,49,40  c1.1-2,3.3-2.5,5.6-1.4c1.4,0.7,3.3,1.7,3.6,3.4c0.1,0.6-0.1,1.6-1.2,2.5C56.2,45.1,55.6,45.3,55.1,45.3z M55,42.8  c0,0.1,0.1,0.2,0.1,0.2c0,0,0.1,0,0.4-0.2c0.4-0.3,0.4-0.5,0.4-0.5c0,0,0-0.1-0.2-0.3c0,0,0,0,0,0C55.7,42.3,55.4,42.7,55,42.8z   M50.8,41.5c0.2,0.1,0.4,0.1,0.7,0c0-0.3,0.1-0.6,0.4-0.8c0.5-0.4,1.2-0.4,1.6,0.1c0,0,0.1,0.1,0.1,0.1c0.1-0.1,0.2-0.1,0.4-0.2  c-0.1,0-0.1-0.1-0.2-0.1c-0.9-0.4-2.1-0.7-2.7,0.5C50.9,41.3,50.8,41.4,50.8,41.5z"/><path d="M51.3,53.6c-1.1,0-2.2-0.3-3-0.7c-1.1-0.6-1.8-1.4-2.3-2.3c-0.1-0.2-0.1-0.4-0.1-0.6c-0.1-0.2-0.1-0.5,0-0.7  c0.3-1,1.2-0.9,1.3-0.9c0.3,0,1,0.3,1,1.3c0,0,0,0,0,0.1c0.2,0.4,0.6,0.8,1.2,1.1c1.1,0.6,3.2,0.6,3.9-0.2c0.4-0.5,1.1-0.5,1.6-0.1  c0.5,0.4,0.5,1.1,0.1,1.6C54.1,53.1,52.7,53.6,51.3,53.6z"/><path d="M25.3,77.5c-0.2,0-0.4,0-0.7-0.1c-0.4-0.1-0.6-0.4-0.8-0.8c-0.4,0.1-0.8,0.1-1.2-0.1c-0.4-0.2-0.7-0.6-0.7-1.1  c0-1.4,0-3.1-0.3-4.8c-0.1-0.3-0.1-0.5-0.2-0.8c-0.3-1.3-0.6-2.4-0.3-4c0.3-1.7,0.3-3.3,0.4-5.1c0.1-1.8,0.2-3.7,0.5-5.5  c0.2-1.1,0.4-2.1,0.6-3.2c0.2-1.3,0.5-2.5,0.7-3.8c0.5-3.4,1.3-5.9,2.3-7.8c2.9-5.3,8.6-6.3,13.6-7.2l1.4-0.2c0.3-0.1,0.6,0,0.9,0.2  c0.3,0.2,0.4,0.5,0.4,0.8c0,0.6-0.2,1.1-0.7,1.4c-0.4,0.3-1,0.2-1.3-0.1c-0.1,0-0.2,0-0.2,0c-4.9,0.9-9.6,1.7-12,6.1  c-0.9,1.7-1.6,4-2.1,7.1c-0.2,1.3-0.4,2.6-0.7,3.8c-0.2,1.1-0.4,2.1-0.6,3.2c-0.3,1.7-0.4,3.5-0.4,5.2c-0.1,1.8-0.2,3.6-0.4,5.4  c-0.2,1.1,0,2,0.3,3.1c0.1,0.3,0.1,0.5,0.2,0.8c0.2,0.9,0.3,1.9,0.4,2.8c0.1,0,0.3,0,0.4,0c0.6,0.1,1,0.6,0.9,1.2  c0,0.1,0,0.2,0.1,0.4c0.1-0.2,0.2-0.4,0.2-0.5l0.1-0.3c0.2-0.4,0.6-0.6,1-0.7c0.4,0,0.8,0.2,1,0.6c0.2,0.4,0.3,0.5,0.4,0.6  c0.2-0.1,0.3-0.4,0.2-1.1c-0.3-1.3-0.6-2.5-0.9-3.8c-0.2-0.9-0.4-1.9-0.6-2.8l-0.2-0.7c-0.4-1.8-0.9-3.8-0.5-5.8  c0.3-1.1,0.7-2.3,1.2-3.4c0.3-0.5,0.6-0.9,0.9-1.2c0.2-0.3,0.4-0.5,0.5-0.7c0.3-0.6,0.9-0.8,1.5-0.5c0.6,0.3,0.8,0.9,0.5,1.5  c-0.2,0.5-0.5,0.8-0.8,1.2c-0.2,0.3-0.4,0.5-0.6,0.8c-0.4,0.9-0.8,1.9-1,2.9c-0.4,1.5,0.1,3.1,0.5,4.7l0.2,0.7  c0.2,0.9,0.4,1.9,0.6,2.8c0.3,1.2,0.5,2.5,0.8,3.7c0.5,1.9-0.3,2.9-1,3.4c-0.7,0.5-1.4,0.5-1.8,0.5c-0.3-0.1-0.5-0.2-0.7-0.3  C26.7,77,26.1,77.5,25.3,77.5z"/><path d="M34,60.6c-0.2,0-0.4-0.1-0.6-0.2c-0.9-0.6-1.9-1.9-2.8-3.1c-0.7-1-1.1-2.1-1.4-3.1c-0.1-0.4-0.3-0.8-0.4-1.2l-0.2-0.4  c-0.4-0.9-0.8-2-0.9-3.1c0-0.5,0.2-1,0.7-1.2c0.5-0.2,1,0,1.3,0.4c0.6,0.3,0.8,0.9,0.6,1.5c0,0.1-0.1,0.1-0.1,0.2  c0.1,0.4,0.3,0.9,0.5,1.3l0.2,0.4c0.2,0.4,0.3,0.8,0.5,1.3c0.3,0.9,0.6,1.8,1.1,2.5c0.4,0.6,1.5,2.1,2.2,2.5c0.5,0.3,0.6,1,0.3,1.6  C34.7,60.5,34.3,60.6,34,60.6z"/><path d="M39.1,90.5c-0.2,0-0.4,0-0.7-0.1c-0.5-0.2-0.9-0.5-1.2-1.1c-0.5,0.3-1.1,0.5-1.7,0.3c-1.8-0.5-1.6-3.2-1.4-5.4  c0-0.3,0-0.6,0-0.7c0-1.7-0.2-3.3-0.4-4.9c-0.1-0.7-0.2-1.4-0.3-2.2c-0.1-1-0.3-2.1-0.4-3.2c-0.3-2.3-0.7-4.6-0.6-6.9  c0.1-1.9,0.3-3.9,0.5-5.7c0.3-2.7,0.6-5.5,0.5-8.3c0-0.6,0.5-1.1,1.1-1.2c0.6,0,1.1,0.5,1.2,1.1c0.1,2.9-0.2,5.7-0.5,8.5  c-0.2,1.8-0.4,3.8-0.5,5.6c-0.1,2.1,0.2,4.3,0.6,6.5c0.2,1.1,0.3,2.2,0.4,3.3c0.1,0.7,0.2,1.4,0.2,2.1c0.2,1.7,0.4,3.4,0.4,5.2  c0,0.2,0,0.5-0.1,0.9c0,0.5-0.1,1.7-0.1,2.5c0.2-0.3,0.4-0.7,0.4-1c0.1-0.6,0.6-1.1,1.2-1c0.6,0,1.1,0.6,1,1.2  c-0.1,1.1,0.1,1.7,0.2,1.9c0.3-0.4,0.6-1,0.7-1.3c0.1-0.1,0.1-0.3,0.2-0.4c0.2-0.4,0.6-0.6,1-0.6c0.4,0,0.8,0.3,1,0.7  c0,0.1,0.1,0.2,0.1,0.2c0.1-0.4,0.4-0.7,0.8-0.9c0.4-0.1,0.9,0,1.1,0.3c0-0.8-0.4-2.1-0.6-2.9c-0.1-0.3-0.2-0.6-0.2-0.9  c-0.5-1.9-0.7-3.9-0.7-5.9c0-0.4,0-0.7,0-1.1c0-0.6,0.1-1.3-0.1-1.8c-0.1-0.5-0.3-0.9-0.4-1.4c-0.2-0.5-0.4-1-0.5-1.6  c-0.1-0.3-0.1-0.6-0.2-0.9c-0.1-0.5-0.2-1-0.4-1.5c-0.1-0.1-0.1-0.2-0.2-0.3c-0.2-0.4-0.6-0.9-0.5-1.6c0-1,0.5-1.4,0.8-1.6  c0.8-0.5,1.7,0,2.4,0.3c0.1,0.1,0.3,0.1,0.4,0.2c0.3,0.1,0.6,0.3,0.9,0.4c1.4,0.7,2.9,1.4,4.2,1.4c0.7,0,1.1-0.3,1.9-0.9l0.3-0.3  c0.4-0.3,0.8-0.6,1.3-0.9c0.6-0.4,1.2-0.7,1.5-1.2c0.4-0.5,1.1-0.6,1.6-0.2c0.5,0.4,0.6,1.1,0.2,1.6c-0.6,0.8-1.4,1.3-2.1,1.7  c-0.4,0.2-0.7,0.5-1,0.7l-0.3,0.3c-0.9,0.7-1.8,1.5-3.4,1.5c-1.8,0-3.6-0.9-5.2-1.7c-0.2-0.1-0.5-0.2-0.7-0.3c0,0,0,0,0,0  c0.3,0.7,0.4,1.4,0.5,2c0,0.3,0.1,0.5,0.1,0.8c0.1,0.4,0.2,0.8,0.4,1.3c0.2,0.6,0.4,1.1,0.5,1.8c0.2,0.8,0.1,1.6,0.1,2.3  c0,0.3,0,0.6,0,0.9c0,1.8,0.3,3.6,0.7,5.4c0.1,0.2,0.1,0.5,0.2,0.8c0.5,1.9,0.9,3.6,0.5,4.8c-0.3,0.7-0.8,1.2-1.5,1.3  c-0.2,0-0.3,0-0.5,0c-0.2,0.4-0.4,0.7-0.7,1c-0.5,0.4-1,0.5-1.6,0.4c-0.4-0.1-0.7-0.3-0.9-0.5C40.3,90,39.8,90.5,39.1,90.5z"/><path d="M61.1,85c-0.8,0-1.5-0.5-1.9-1.2c-0.2,0.3-0.5,0.6-0.8,0.8c-0.6,0.4-1.6,0.6-3-0.2c-1.9-1.1-1.8-3.4-1.7-5.1  c0-0.3,0-0.6,0-0.9c-0.1-0.1-0.2-0.1-0.3-0.2c-1.2-1.3-0.8-4.5,0.2-9.6c0.3-1.6,0.6-3.2,0.6-3.8c0-0.6,0.5-1.1,1.1-1.2c0,0,0,0,0,0  c0.6,0,1.1,0.5,1.1,1.1c0,0.8-0.2,2.2-0.6,4.3c-0.4,2.1-1.2,6.3-0.8,7.5c0.2,0,0.4,0.1,0.5,0.2c0.2,0.2,0.4,0.5,0.4,0.8  c0.1,0.6,0,1.3,0,1.9c-0.1,1.6-0.1,2.7,0.6,3.1c0.2,0.1,0.6,0.3,0.7,0.2c0.3-0.2,0.6-1,0.6-2.2c0-0.5,0.4-1,0.9-1.1  c0.5-0.1,1.1,0.1,1.3,0.6c0.1,0.2,0.2,0.5,0.3,0.8c0.1,0.4,0.4,1.3,0.8,1.8c0.1-0.5,0-1.2,0-1.7c0-0.5-0.1-1,0-1.3  c-0.4-0.6-0.8-1.2-1-1.8c-1.2-3-0.6-6.8,0.3-10.1l0.3-1.2c1-3.7,1.9-7.5,1.1-11.2c-0.2-0.2-0.3-0.5-0.3-0.9c0,0,0-0.1,0-0.1  c-0.1-0.5,0.1-0.9,0.4-1.2c0.4-0.3,0.9-0.3,1.3,0c0.2,0.1,0.6,0.5,0.5,1.1c1.1,4.3,0,8.8-1,12.7l-0.3,1.2c-0.7,2.9-1.4,6.2-0.4,8.7  c0.2,0.5,0.6,1.1,1.1,1.8c0.8,1.1,1.6,2.3,1.8,3.6c0.2,1.3-0.4,1.8-0.9,1.9c-0.4,0.1-0.8,0.1-1.1-0.2c-0.2,0.4-0.6,0.7-1.1,0.9  C61.5,84.9,61.3,85,61.1,85z"/><path d="M31.7,37c-0.1,0-0.1,0-0.2,0c-0.6-0.1-1-0.7-0.9-1.3l1.1,0.2l-1.1-0.2c0,0-0.1-0.2-0.1-0.3c-0.1-0.2-0.2-0.4-0.2-0.6  c-0.8-2.4-1.1-5.6-0.6-8.4c0.4-2.4,1-6.9,4.3-8.4c0.3-0.2,0.7-0.1,1,0c0.3,0.2,0.5,0.5,0.6,0.9c0.1,1.3-0.1,2.7-0.3,4  c-0.1,0.6-0.2,1.1-0.2,1.6c-0.3,2.9-0.2,5.1,0.2,7c0,0.1,0.1,0.3,0.1,0.5c0.1,0.4,0.3,1.6,0.5,2c0.5,0.3,0.7,0.9,0.4,1.5  c-0.3,0.6-0.9,0.8-1.5,0.5c-1.1-0.5-1.4-2-1.7-3.5c0-0.2-0.1-0.3-0.1-0.4c-0.5-2.2-0.5-4.6-0.2-7.7c0.1-0.6,0.1-1.2,0.2-1.7  c0-0.2,0.1-0.4,0.1-0.7c-0.8,1.5-1.1,3.6-1.3,4.9c-0.4,2.4-0.1,5.3,0.6,7.3c0,0.1,0.1,0.3,0.2,0.4c0.2,0.4,0.4,0.9,0.3,1.5  C32.7,36.6,32.2,37,31.7,37z"/><path d="M26.1,28c0,0-0.1,0-0.1,0c-0.6-0.1-1.1-0.6-1-1.2c0.3-2.5,0.9-4.5,2-6.4c0.1-0.2,0.3-0.4,0.4-0.6c0,0,0.1-0.1,0.1-0.1  c-0.1-0.6,0.4-1.2,1-1.2c0.6-0.1,1.2,0.3,1.3,0.9c0.1,0.9-0.2,1.4-0.5,1.7c-0.1,0.1-0.2,0.2-0.3,0.4c-1,1.7-1.5,3.4-1.7,5.6  C27.1,27.6,26.7,28,26.1,28z"/><path d="M22.9,28.5c-0.1,0-0.1,0-0.2,0c-0.6-0.1-1-0.7-1-1.3c0-0.3,0.1-0.7,0.1-1.2c0.3-2.2,0.6-5.3,2.1-7.1  c0.4-0.5,1.1-0.5,1.6-0.1c0.5,0.4,0.5,1.1,0.1,1.6c-1.1,1.2-1.4,4-1.6,5.8c-0.1,0.5-0.1,0.9-0.2,1.2C24,28.1,23.5,28.5,22.9,28.5z"/><path d="M73.7,32.8c-0.2,0-0.4,0-0.5-0.1c-0.5-0.3-0.7-1-0.4-1.5c1.1-2,2.2-3.6,3.4-5l0.1-0.1c0.7-0.8,1.8-2.1,3.1-1.7  c0.6,0.2,0.9,0.8,0.8,1.4c-0.2,0.5-0.7,0.9-1.2,0.8c-0.2,0.1-0.5,0.4-1,1l-0.1,0.2c-1.1,1.3-2.1,2.7-3.2,4.6  C74.5,32.6,74.1,32.8,73.7,32.8z"/><path d="M48.6,23.3c-0.1,0-0.2,0-0.2,0c-0.6-0.1-1-0.7-0.9-1.3c0.3-1.4,0.3-2.6,0.2-4.1c0-0.2,0-0.4,0-0.6c0-0.3,0-1.1-0.2-1.4  c-0.4-0.3-0.6-0.9-0.3-1.4c0.3-0.6,1-0.8,1.5-0.5c1.1,0.6,1.2,2.1,1.2,3.2c0,0.2,0,0.3,0,0.5c0.2,1.7,0.1,3.1-0.2,4.8  C49.5,23,49.1,23.3,48.6,23.3z"/><path d="M45.2,28.3c-0.1,0-0.2,0-0.3,0l-0.2,0c-0.4-0.1-0.7-0.4-0.8-0.8s0-0.8,0.2-1.1c0.2-0.2,0.3-0.4,0.4-0.6  c0.2-0.3,0.4-0.6,0.7-0.9c1.2-1.4,3.3-3,5.5-3c0.6-0.1,1.1,0.5,1.1,1.1c0,0.6-0.5,1.1-1.1,1.1c-1.3,0-2.9,1.2-3.8,2.2  c-0.2,0.2-0.3,0.4-0.4,0.6c-0.1,0.1-0.2,0.3-0.3,0.4c0,0,0,0.1,0,0.1C46.2,27.9,45.7,28.3,45.2,28.3z"/><path d="M70.3,42.2c-0.6,0-1.1-0.4-1.1-1c-0.1-1.2,0.3-2.3,0.6-3.3c0.2-0.6,0.4-1.1,0.5-1.7c0.2-1.2,0-2.6-0.1-3.9  c0-0.4-0.1-0.9-0.1-1.3c-0.1-0.6,0.4-1.2,1-1.2c0.6-0.1,1.2,0.4,1.2,1c0,0.4,0.1,0.8,0.1,1.2c0.2,1.5,0.3,3,0.1,4.5  c-0.1,0.7-0.4,1.4-0.6,2.1c-0.3,0.9-0.6,1.6-0.5,2.3C71.5,41.6,71.1,42.2,70.3,42.2C70.4,42.2,70.4,42.2,70.3,42.2z"/><path d="M53.3,58.6c-0.7,0-1.4-0.3-2-0.7c-2.4-2-3.2-7.4-3.2-9.2c0-0.6,0.5-1.1,1.1-1.1s1.1,0.5,1.1,1.1c0,2,0.9,6.3,2.4,7.4  c0.3,0.3,0.6,0.3,0.8,0.2c0.7-0.1,1.2-0.4,1.3-0.6c0.3-0.4,0-1.5-0.3-2.6c-0.1-0.3-0.2-0.7-0.3-1c-0.2-0.6,0.2-1.2,0.8-1.4  c0.6-0.2,1.2,0.2,1.4,0.8c0.1,0.3,0.2,0.7,0.3,1c0.4,1.6,0.9,3.1,0.1,4.3c-0.5,0.8-1.4,1.4-2.8,1.7C53.7,58.6,53.5,58.6,53.3,58.6z"/><path d="M52.7,54.5l-0.6-2.2l0.3,1.1l-1.1,0c0-0.3-0.3-3.3-0.4-4.4c-0.1-0.6-0.1-1-0.1-1c0-0.6,0.5-1.1,1.1-1.1  c0.6,0,1.1,0.5,1.1,1.1c0,0.1,0,0.4,0.1,0.8C53.6,54.3,53.6,54.3,52.7,54.5z"/><path d="M57.8,53.5c-0.8,0-1.7-0.1-2.3-0.4C53,52,52.2,49.9,51.6,48c-1.7,1.2-4.4,2.6-6.7,2c-1-0.3-2.3-1-3-3.1  c-0.6-1.8-0.5-3.7-0.4-5.5c0-0.5,0.1-1,0.1-1.5c0-1.3-0.1-2.6-0.2-4c-0.1-0.6-0.1-1.1-0.1-1.7C41,31.7,41,29.1,41,26.6  c0-2.8-0.1-5.7-0.3-8.6c0-0.1-0.6-8.7,2.8-11.1c0.7-0.5,1.9-0.9,3.6-0.1c2.6,1.3,4.1,4.8,5.1,7.4c0.1,0.3,0.3,0.7,0.4,1  c0.6,1.4,1.2,2.9,1.7,4.4c0.1,0.3,0.2,0.6,0.3,0.9c3.8-0.5,7.6,1,10.9,2.7c0.6,0.3,1.2,0.9,1.7,1.4c0.3,0.3,0.9,0.9,1.1,1  c0.2,0,0.9-0.5,1.2-0.7c0.2-0.1,0.4-0.3,0.5-0.4c2-1.2,3.7-2.1,5.3-2.8c3-1.3,7.9-3.4,11.4-1.6c1.2,0.7,2.1,1.7,2.4,3  c0.8,3.6-2.2,8-2.8,8.9c-1.9,2.6-4.5,5.1-8,7.4c-2,1.4-4.2,1.3-6.2,1.1c-1.3,2.4-2.8,5-4.8,7c-0.4,0.4-0.8,0.9-1.3,1.3  c-1.1,1.2-2.3,2.4-3.5,3.3C61.4,53,59.6,53.5,57.8,53.5z M52.2,45c0.1,0,0.2,0,0.3,0c0.4,0.1,0.6,0.4,0.8,0.7c0.1,0.3,0.2,0.7,0.3,1  c0.6,1.9,1.1,3.5,2.8,4.3c1.2,0.5,3.7,0.2,4.8-0.7c1.1-0.8,2.1-1.9,3.2-3c0.5-0.5,0.9-1,1.3-1.4c1.8-1.8,3.1-4.2,4.4-6.5l0.3-0.6  c0.2-0.4,0.6-0.6,1.1-0.6l0.2,0c2,0.2,3.8,0.4,5.3-0.6c3.2-2.2,5.7-4.5,7.4-6.9c1.5-2.1,2.9-5.2,2.5-7.1c-0.2-0.7-0.6-1.2-1.2-1.6  c-2.6-1.4-7,0.6-9.5,1.6c-1.6,0.7-3.2,1.5-5.1,2.7c-0.1,0.1-0.3,0.2-0.4,0.3c-0.8,0.5-1.8,1.3-2.9,1.1c-0.9-0.2-1.6-0.9-2.3-1.6  c-0.4-0.4-0.8-0.8-1.1-0.9c-2.9-1.4-6.1-2.7-9.2-2.5c-0.1,0.4-0.3,0.7-0.7,0.8c-0.5,0.2-1.1,0-1.4-0.4c-0.4,0.1-0.7,0.2-1.1,0.4  c-0.6,0.3-1.2,0-1.5-0.6s0-1.2,0.6-1.5c0.4-0.2,0.8-0.3,1.2-0.5c-0.1-0.2-0.1-0.4-0.2-0.6c-0.6-1.4-1.1-2.9-1.7-4.3  c-0.1-0.3-0.3-0.6-0.4-1c-0.9-2.2-2.1-5.3-4-6.2c-0.8-0.4-1.2-0.2-1.3-0.1c-1.6,1.1-2,6.5-1.8,9c0.3,2.9,0.3,5.9,0.3,8.7  c0,2.4,0,5,0.2,7.4c0,0.6,0.1,1.1,0.1,1.7c0.1,1.4,0.2,2.8,0.2,4.2c0,0.5,0,1.1-0.1,1.6c-0.1,1.6-0.2,3.2,0.3,4.6  c0.3,0.9,0.8,1.5,1.5,1.6c1.6,0.4,4.1-1,6-2.5C51.6,45.1,51.9,45,52.2,45z"/><text x="0" y="115" fill="#000000" font-size="5px" font-weight="bold" font-family="'Helvetica Neue', Helvetica, Arial-Unicode, Arial, Sans-serif">Created by Ariel Kotzer</text><text x="0" y="120" fill="#000000" font-size="5px" font-weight="bold" font-family="'Helvetica Neue', Helvetica, Arial-Unicode, Arial, Sans-serif">from the Noun Project</text></svg>